<svg width="432" height="317" viewBox="0 0 432 317" fill="none" xmlns="http://www.w3.org/2000/svg">
<rect x="1" width="429.699" height="316.86" fill="#E4B599"/>
<path d="M241.08 38.4966C241.08 38.4966 238.498 34.5008 239.087 33.6581C239.676 32.8153 241.08 32.1965 242.264 35.656C243.447 39.1154 244.925 42.4158 244.999 43.0346C245.072 43.6534 242.252 46.0285 241.998 44.4903C241.743 42.9521 242.19 40.3884 241.08 38.4966Z" stroke="white" stroke-width="2" stroke-miterlimit="10"/>
<path d="M253 35C253 35 233.152 50.4603 230 51" stroke="white" stroke-width="2" stroke-miterlimit="10"/>
<path d="M263 53.0839C260.304 54.9391 253.1 56.2549 250.297 53.0839C247.493 49.913 245.107 40.4061 245.107 40.4061C245.107 40.4061 244.324 34.5561 247.001 41.0995C249.678 47.643 248.674 49.6581 250.789 52.0941C252.399 53.9374 256.301 56.1304 262.501 52.0941" stroke="white" stroke-width="2" stroke-miterlimit="10"/>
<path d="M210.294 54.4883L207 78C207 78 219.931 76.1492 216.384 54" stroke="white" stroke-width="2" stroke-miterlimit="10"/>
<path d="M206.93 77.7212C206.93 77.7212 206.374 106.496 195.807 127.253C185.24 148.009 183.254 189.719 183.254 189.719C183.254 189.719 177.073 235.463 176.476 242.716C175.879 249.97 166.642 284.881 159 296.747C159 296.747 169.189 311.97 191.121 307.943C191.121 307.943 192.894 293.831 192.001 266.293C191.109 238.755 199.755 239.197 205.961 196.65C212.166 154.103 209.944 150.297 216.599 134.619C223.253 118.942 234.092 89.8082 234.092 89.8082L231.226 50.3206C231.611 49.6276 232.162 49.0429 232.828 48.6193C233.493 48.1957 234.253 47.9467 235.038 47.8948C237.857 47.608 239.972 61.8699 238.985 65.4369C237.998 69.0039 235.044 72.7501 234.057 72.7501C233.661 72.7501 234.003 72.1944 234.559 71.5551C236.125 69.679 237.981 64.9171 238.152 62.4734C238.974 50.9718 231.74 49.8844 228.832 49.6275C225.588 49.3467 217.686 55.0467 209.92 54.4791C209.92 54.4791 207.095 48.9105 212.172 47.9067C217.249 46.903 246.308 33.0533 247.732 29.3489C249.157 25.6445 262.507 52.591 263.689 55.5844C264.871 58.5778 266.372 85.9545 262.56 101.358C258.748 116.761 261.857 152.544 261.857 152.544C261.857 152.544 266.508 187.335 257.129 227.403C247.75 267.47 254.942 306.868 254.942 306.868C254.942 306.868 239.967 316.959 220.931 305.601C220.931 305.601 230.292 271.216 231.232 263.963C233.211 249.853 234.254 235.625 234.352 221.374C234.659 198.67 234.659 179.419 235.599 166.489C236.539 153.56 239.967 114.436 235.286 96.4582C230.605 78.48 229.612 50.8105 229.612 50.8105L220.387 52.364C220.387 52.364 219.731 43.6407 218.572 43.6407C217.414 43.6407 216.262 43.7184 217.036 48.0023C217.81 52.2863 217.19 54.2401 217.958 54.3177C218.726 54.3954 220.499 53.302 220.499 53.302L220.387 52.364" stroke="white" stroke-width="2" stroke-miterlimit="10"/>
<path d="M215 53.7299C215 53.7299 213.303 50.7398 213.19 56.8635C213.076 62.9872 215.724 70.2471 207 76" stroke="white" stroke-width="2" stroke-miterlimit="10"/>
<path d="M192 305.216C192 305.216 171.596 308.73 161 295.375C161 295.375 158.75 293.372 161 298.623C163.251 303.873 186.718 308.296 191.882 306.652" stroke="white" stroke-width="2" stroke-miterlimit="10"/>
<path d="M222 302.516C222 302.516 240.321 310.494 252.68 302.516C252.68 302.516 256.862 301.413 250.339 305.448C243.815 309.482 223.72 304.812 222.466 301" stroke="white" stroke-width="2" stroke-miterlimit="10"/>
<path d="M1 211.111C1 211.111 27.6497 151.232 64.4043 153.04C101.159 154.848 111.45 260.557 159 296" stroke="white" stroke-width="2" stroke-miterlimit="10"/>
<path d="M264 55.694C264 55.694 332.184 87.8825 381.598 55.694C431.012 23.5054 431 6 431 6" stroke="white" stroke-width="2" stroke-miterlimit="10"/>
</svg>
