<svg width="1440" height="1137" viewBox="0 0 1440 1137" fill="none" xmlns="http://www.w3.org/2000/svg">
<g id="pants">
<rect id="Rectangle 2" x="-35.8851" width="1541.9" height="1137" fill="#E4B599"/>
<path id="pants-complete" d="M759.607 125.592C759.607 125.592 690.171 181.068 679.143 183.005M794.592 190.483C785.16 197.14 759.957 201.861 750.15 190.483C740.342 179.104 731.993 144.99 731.993 144.99C731.993 144.99 729.254 123.999 738.619 147.479C747.985 170.959 744.473 178.19 751.872 186.931C757.505 193.545 771.156 201.415 792.847 186.931M610.205 195.522L598.679 279.89C598.679 279.89 643.919 273.249 631.509 193.77M598.433 278.889C598.433 278.889 596.49 382.143 559.522 456.624C522.554 531.106 515.607 680.776 515.607 680.776C515.607 680.776 493.98 844.919 491.892 870.946C489.803 896.974 457.487 1022.25 430.754 1064.83C430.754 1064.83 466.399 1119.45 543.126 1105C543.126 1105 549.329 1054.36 546.207 955.547C543.085 856.732 573.333 858.318 595.043 705.646C616.752 552.974 608.978 539.317 632.259 483.06C655.54 426.802 693.459 322.262 693.459 322.262L683.431 180.567C684.78 178.08 686.706 175.982 689.035 174.462C691.364 172.942 694.021 172.049 696.767 171.862C706.629 170.833 714.031 222.01 710.578 234.809C707.125 247.609 696.787 261.052 693.335 261.052C691.949 261.052 693.149 259.058 695.092 256.764C700.571 250.032 707.063 232.944 707.663 224.175C710.537 182.904 685.23 179.002 675.057 178.08C663.706 177.072 636.063 197.526 608.895 195.489C608.895 195.489 599.012 175.507 616.773 171.905C634.533 168.303 736.195 118.606 741.178 105.314C746.161 92.0211 792.867 188.714 797.003 199.455C801.138 210.197 806.389 308.433 793.053 363.705C779.718 418.976 790.593 547.379 790.593 547.379C790.593 547.379 806.865 672.222 774.052 815.996C741.24 959.771 766.402 1101.14 766.402 1101.14C766.402 1101.14 714.01 1137.36 647.414 1096.6C647.414 1096.6 680.164 973.214 683.452 947.186C690.377 896.555 694.024 845.5 694.368 794.364C695.444 712.893 695.444 643.814 698.731 597.419C702.019 551.023 714.01 410.636 697.635 346.124C681.26 281.612 677.787 182.325 677.787 182.325L645.512 187.899M645.512 187.899C645.512 187.899 643.217 156.597 639.164 156.597C635.112 156.597 631.08 156.876 633.789 172.248C636.497 187.621 634.326 194.631 637.014 194.91C639.702 195.189 645.905 191.265 645.905 191.265L645.512 187.899ZM626.667 192.801C626.667 192.801 620.729 182.071 620.333 204.045C619.937 226.019 629.2 252.07 598.679 272.713M546.202 1095.22C546.202 1095.22 474.82 1107.82 437.752 1059.9C437.752 1059.9 429.878 1052.72 437.752 1071.56C445.625 1090.4 527.722 1106.27 545.79 1100.37M651.155 1085.53C651.155 1085.53 715.25 1114.16 758.489 1085.53C758.489 1085.53 773.118 1081.57 750.297 1096.05C727.476 1110.52 657.174 1093.77 652.786 1080.09M-122 757.538C-122 757.538 -28.7675 542.67 99.8161 549.159C228.4 555.648 264.402 934.965 430.754 1062.15M798.091 199.849C798.091 199.849 1036.63 315.352 1209.5 199.849C1382.37 84.3453 1382.33 21.53 1382.33 21.53M717.907 138.139C717.907 138.139 708.875 123.8 710.935 120.776C712.995 117.752 717.907 115.532 722.047 127.945C726.187 140.359 731.357 152.202 731.615 154.422C731.872 156.643 722.008 165.165 721.116 159.646C720.225 154.126 721.79 144.927 717.907 138.139Z" stroke="white" stroke-width="2" stroke-miterlimit="10"/>
</g>
</svg>
