<svg width="1440" height="1137" viewBox="0 0 1440 1137" fill="none" xmlns="http://www.w3.org/2000/svg">
<g id="Preloader" clip-path="url(#clip0_2:2)">
<rect width="1440" height="1137" fill="white"/>
<g id="pants">
<rect id="Rectangle 2" x="-35.8851" width="1541.9" height="1137" fill="#E4B599"/>
<path id="pants-complete" d="M759.607 125.592C759.607 125.592 690.171 181.068 679.143 183.005M794.592 190.483C785.16 197.14 759.957 201.861 750.15 190.483C740.342 179.104 731.993 144.99 731.993 144.99C731.993 144.99 729.254 123.999 738.619 147.479C747.985 170.959 744.473 178.19 751.872 186.931C757.505 193.545 771.156 201.415 792.847 186.931M610.205 195.522L598.679 279.89C598.679 279.89 643.919 273.249 631.509 193.77M598.433 278.889C598.433 278.889 596.49 382.143 559.522 456.624C522.554 531.106 515.607 680.776 515.607 680.776C515.607 680.776 493.98 844.919 491.892 870.946C489.803 896.974 457.487 1022.25 430.754 1064.83C430.754 1064.83 466.399 1119.45 543.126 1105C543.126 1105 549.329 1054.36 546.207 955.547C543.085 856.732 573.333 858.318 595.043 705.646C616.752 552.974 608.978 539.317 632.259 483.06C655.54 426.802 693.459 322.262 693.459 322.262L683.431 180.567C684.78 178.08 686.706 175.982 689.035 174.462C691.364 172.942 694.021 172.049 696.767 171.862C706.629 170.833 714.031 222.01 710.578 234.809C707.125 247.609 696.787 261.052 693.335 261.052C691.949 261.052 693.149 259.058 695.092 256.764C700.571 250.032 707.063 232.944 707.663 224.175C710.537 182.904 685.23 179.002 675.057 178.08C663.706 177.072 636.063 197.526 608.895 195.489C608.895 195.489 599.012 175.507 616.773 171.905C634.533 168.303 736.195 118.606 741.178 105.314C746.161 92.0211 792.867 188.714 797.003 199.455C801.138 210.197 806.389 308.433 793.053 363.705C779.718 418.976 790.593 547.379 790.593 547.379C790.593 547.379 806.865 672.222 774.052 815.996C741.24 959.771 766.402 1101.14 766.402 1101.14C766.402 1101.14 714.01 1137.36 647.414 1096.6C647.414 1096.6 680.164 973.214 683.452 947.186C690.377 896.555 694.024 845.5 694.368 794.364C695.444 712.893 695.444 643.814 698.731 597.419C702.019 551.023 714.01 410.636 697.635 346.124C681.26 281.612 677.787 182.325 677.787 182.325L645.512 187.899M645.512 187.899C645.512 187.899 643.217 156.597 639.164 156.597C635.112 156.597 631.08 156.876 633.789 172.248C636.497 187.621 634.326 194.631 637.014 194.91C639.702 195.189 645.905 191.265 645.905 191.265L645.512 187.899ZM626.667 192.801C626.667 192.801 620.729 182.071 620.333 204.045C619.937 226.019 629.2 252.07 598.679 272.713M546.202 1095.22C546.202 1095.22 474.82 1107.82 437.752 1059.9C437.752 1059.9 429.878 1052.72 437.752 1071.56C445.625 1090.4 527.722 1106.27 545.79 1100.37M651.155 1085.53C651.155 1085.53 715.25 1114.16 758.489 1085.53C758.489 1085.53 773.118 1081.57 750.297 1096.05C727.476 1110.52 657.174 1093.77 652.786 1080.09M-122 757.538C-122 757.538 -28.7675 542.67 99.8161 549.159C228.4 555.648 264.402 934.965 430.754 1062.15M798.091 199.849C798.091 199.849 1036.63 315.352 1209.5 199.849C1382.37 84.3453 1382.33 21.53 1382.33 21.53M717.907 138.139C717.907 138.139 708.875 123.8 710.935 120.776C712.995 117.752 717.907 115.532 722.047 127.945C726.187 140.359 731.357 152.202 731.615 154.422C731.872 156.643 722.008 165.165 721.116 159.646C720.225 154.126 721.79 144.927 717.907 138.139Z" stroke="white" stroke-width="2" stroke-miterlimit="10"/>
</g>
<g id="sweatshirt">
<rect id="bgcolor" width="1541.9" height="1137" fill="#E4B599"/>
<path id="sweatshirt-complete" d="M351.857 984.548L363.367 1051.37C363.367 1051.37 368.443 1067.27 351.857 1068.61C335.271 1069.95 298.764 1069.08 294.708 1068.61C290.652 1068.14 287.785 1064.88 287.785 1041.02V987.824C287.785 987.824 302.65 984.548 342.64 987.35C342.64 987.35 361.987 983.147 292.393 967.24C292.393 967.24 266.59 965.839 272.112 979.871C277.633 993.902 361.541 969.093 361.541 969.093C361.541 969.093 358.313 887.187 371.204 832.03C384.095 776.873 385.029 710.421 385.029 698.243C385.029 686.065 397.772 609.871 399.556 591.162C401.339 572.453 421.769 522.857 421.769 522.857C421.769 522.857 414.995 514.709 395.839 578.617C395.839 578.617 348.926 457.052 338.499 447.029C328.071 437.006 342.215 428.234 357.612 460.199C366.981 479.644 375.013 499.722 381.652 520.292C381.652 520.292 389.064 566.03 387.811 414.374C387.811 414.374 392.759 388.057 398.324 541.544C398.324 541.544 400.915 575.902 390.827 565.642M351.826 450.849C351.826 450.849 331.419 393.746 326.99 386.099C322.561 378.452 371.484 447.833 367.561 430.773C367.561 430.773 322.48 366.432 322.48 337.848C322.48 309.264 327.617 307.434 340.682 298.322C353.747 289.21 362.929 285.549 365.821 274.628C368.714 263.707 377.815 246.625 384.65 244.234C391.486 241.843 409.79 227.196 409.79 227.196C409.79 227.196 422.349 224.159 398.929 219.291C375.509 214.422 353.242 212.592 371.525 210.179C389.808 207.767 450.907 201.563 452.039 198.009C453.172 194.455 443.484 192.538 426.92 189.393C410.356 186.248 378.381 191.547 392.073 183.598C405.765 175.65 477.745 173.884 477.745 166.581C477.745 159.279 457.277 143.533 457.277 143.533C457.277 143.533 374.478 175.844 322.52 236.587C270.563 297.331 302.538 299.227 285.408 389.847C268.278 480.467 296.248 406.26 269.977 518.787C243.705 631.313 266.559 727.383 266.559 727.383C266.559 727.383 287.673 761.438 285.974 833.814C284.276 906.189 282.536 946.857 286.54 957.886C290.545 968.915 295.945 968.85 295.945 968.85M462.469 143.673C462.469 143.673 425.157 137.07 433.474 121.305C441.791 105.54 452.901 119.154 465.408 111.282C477.914 103.41 485.522 83.3219 495.944 82.6337C506.366 81.9454 524.397 84.7845 529.941 89.7958C535.486 94.8071 513.995 99.8184 513.995 107.712C513.995 115.605 530.858 140.64 530.858 140.64C530.858 140.64 538.029 148.448 530.858 166.751C523.688 185.054 526.002 184.323 533.172 200.088C540.342 215.853 533.172 244.48 533.172 244.48C533.172 244.48 522.521 260.245 533.172 311.8C543.823 363.354 541.051 388.432 541.051 388.432C541.051 388.432 538.967 399.186 527.857 417.79C524.625 423.084 522.684 429.107 522.201 435.344C521.719 441.58 522.708 447.845 525.084 453.601L533.172 488.013H541.385L533.172 447.923C533.172 447.923 545.22 437.169 545.908 421.425C546.596 405.681 546.596 393.465 554.245 374.108C561.895 354.751 563.959 332.576 561.186 320.338C558.414 308.1 542.031 262.547 538.966 245.061C535.902 227.575 539.654 192.066 554.933 204.949C570.212 217.832 582.698 252.266 582.698 252.266C582.698 252.266 498.446 196.346 483.667 166.643M581.302 253.456C581.302 253.456 591.104 280.644 598.129 337.901C598.129 337.901 600.926 354.343 627.575 345.058C654.225 335.773 641.584 269.188 669.642 221.238C697.7 173.288 717.261 202.238 760.695 144.831C760.695 144.831 767.699 135.374 739.662 93.2484C711.624 51.1225 769.109 72.2714 786.587 83.8345C804.066 95.3976 814.604 85.382 816.707 94.5809C818.81 103.78 816.707 123.919 816.707 123.919C816.707 123.919 818.095 134.257 839.107 144.831C860.12 155.405 864.348 163.272 857.322 168.28C850.297 173.288 819.462 183.325 810.397 189.772C801.332 196.22 764.881 191.922 754.364 194.071C743.847 196.22 722.478 190.417 720.921 207.998C719.365 225.579 720.059 260.527 717.956 286.34C715.852 312.152 725.654 335.042 725.654 351.506C725.654 367.969 728.073 393.008 720.921 404.464C713.77 415.92 720.921 453.124 720.921 453.124H712.34L708.848 415.425C708.848 415.425 694.125 421.637 699.047 394.448C703.968 367.26 704.641 344.349 703.253 328.616C701.865 312.883 689.266 279.956 698.353 264.911C707.439 249.866 713.076 221.926 713.076 221.926C713.076 221.926 706.766 188.999 749.484 184.7C792.203 180.402 769.088 192.567 830.715 161.058C830.715 161.058 865.042 140.318 947.682 213.307C1030.32 286.297 1006.57 436.596 1008.68 460.195C1010.78 483.794 1015.68 530.326 1030.38 628.376C1045.09 726.426 1028.98 838.769 1030.38 845.926C1031.79 853.083 1045.8 911.049 1044.39 948.274C1042.98 985.5 1028.98 978.364 1028.98 978.364C1028.98 978.364 958.24 988.38 942.844 963.319C927.448 938.259 931.633 935.379 932.327 971.186C933.021 1006.99 930.939 1043.47 940.047 1052.06C949.154 1060.66 987.666 1075.71 1017.07 1066.38C1017.07 1066.38 1030.38 1062.79 1034.59 1057.78C1038.8 1052.77 1035.98 987.649 1035.98 987.649C1035.98 987.649 936.534 1019.89 930.245 936.84C923.956 853.792 928.836 725.717 928.836 725.717C928.836 725.717 930.939 694.23 922.526 670.631C914.112 647.031 928.142 653.436 919.034 636.242C909.927 619.048 895.224 580.361 895.224 580.361C895.224 580.361 881.91 547.455 864.411 540.298C846.911 533.141 872.109 528.843 899.431 568.561C899.431 568.561 898.716 508.081 952.014 451.555C952.014 451.555 935.188 474.444 921.895 525.984C908.602 577.524 905.068 576.793 905.068 576.793C905.068 576.793 921.895 550.314 938.721 544.554C955.548 538.794 912.114 571.033 912.808 584.638C913.503 598.243 949.238 584.638 958.324 598.952C967.411 613.266 914.154 610.408 909.948 602.52C905.741 594.632 887.526 563.661 877.031 571.635C866.535 579.609 868.617 583.929 877.725 589.646C886.832 595.363 868.617 605.486 871.415 616.877C874.212 628.268 882.604 666.311 895.224 706.287C907.844 746.264 895.224 958.204 895.224 958.204C895.224 958.204 892.658 988.036 909.822 1023.11C926.985 1058.19 749.442 1028.51 667.602 1056.83C585.761 1085.16 398.375 1048.73 398.375 1027.15C398.375 1005.57 401.677 877.456 394.421 850.482C387.164 823.509 443.912 816.76 453.798 753.356C463.684 689.953 467.659 663.667 476.935 661.647C486.21 659.626 850.045 634.63 850.045 634.63C850.045 634.63 811.722 734.443 885.907 835.48C885.907 835.48 897.454 876.188 877.998 908.685C877.998 908.685 883.909 931.574 873.287 933.38C862.665 935.185 678.855 940 673.47 932.778C668.085 925.556 710.005 916.53 722.372 914.724C734.74 912.919 797.209 914.724 827.245 921.344C857.28 927.964 877.325 912.295 877.325 895.445C877.325 878.595 879.681 866.537 861.424 831.633C843.167 796.729 804.865 697.368 806.043 670.265C807.221 643.163 745.341 641.959 691.727 654.017C638.113 666.074 500.828 667.256 500.828 667.256C500.828 667.256 485.516 662.442 461.349 796.707C461.349 796.707 460.907 817.168 420.46 879.798C413.879 900.021 410.188 921.107 409.502 942.407C408.324 977.934 509.663 949.628 533.241 949.027C556.819 948.425 673.47 956.85 666.403 940C659.336 923.149 510.756 955.646 484.906 943.61C459.056 931.574 403.15 909.222 420.46 861.723C437.77 814.224 453.735 753.356 453.735 753.356M-96 671.018C-96 671.018 13.9115 730.335 89.5619 896.882C165.212 1063.43 292.328 1069.32 292.328 1069.32M1034 986.761C1034 986.761 1260.38 993.472 1411.83 807.375" stroke="white" stroke-width="2" stroke-miterlimit="10"/>
</g>
<g id="shoe">
<rect id="bgcolor_2" x="3.05634" width="1541.9" height="1137" fill="#E4B599"/>
<path id="shoe-complete" d="M-58 781.435H205.391C205.391 781.435 197.379 823.72 597.994 815.442C597.994 815.442 934.952 832.51 1056.8 805.308C1178.65 778.107 1204.94 738.019 1204.94 738.019C1204.94 738.019 1205.35 701.75 1194.36 676.149C1194.12 675.603 1193.76 675.123 1193.3 674.746C1192.85 674.369 1192.31 674.105 1191.74 673.977C1191.17 673.848 1190.58 673.858 1190.01 674.006C1189.44 674.153 1188.92 674.434 1188.47 674.826C1169.7 691.424 1064.54 758.031 620.652 716.087C620.652 716.087 214.821 696.331 216.991 660.212C219.161 624.093 219.265 526.722 248.768 447.634C248.768 447.634 265.584 448.851 290.913 487.018C294.483 492.456 299.213 496.995 304.745 500.295C310.278 503.595 316.47 505.569 322.857 506.07C350.46 508.033 404.624 497.685 503.646 434.386C503.646 434.386 591.922 365.731 620.652 399.44C649.383 433.148 954.481 561.369 954.481 561.369C954.481 561.369 1033.93 579.781 1154.34 606.598C1154.34 606.598 1168.94 602.715 1185.95 677.344C1185.95 677.344 1006.89 619.74 943.381 666.676C943.381 666.676 892.952 682.379 935.327 614.257C935.327 614.257 965.873 564.121 876.699 525.228C876.699 525.228 862.407 492.864 837.453 511.403M819.357 501.367C819.357 501.367 824.55 487.401 807.65 478.893C790.751 470.385 785.125 485.124 785.125 485.124M770.377 476.248C770.377 476.248 775.57 464.301 758.693 456.992C741.816 449.684 736.146 462.331 736.146 462.331M717.901 454.718C717.901 454.718 723.094 440.753 706.217 432.245C689.339 423.737 683.67 438.476 683.67 438.476M668.998 429.6C668.998 429.6 673.672 415.661 658.482 407.134C643.292 398.608 638.19 413.363 638.19 413.363M491.333 443.953C491.333 443.953 487.337 398.223 536.705 362.441C586.073 326.66 596.855 381.837 645.187 402.508M669.676 418.835L687.169 433.188M718.655 447.542L736.146 458.307M250.258 447.05C250.258 447.05 242.827 426.856 292.453 456.664C342.078 486.473 343.181 503.133 354.816 504.955M218.377 601.84C218.377 601.84 322.59 541.969 347.819 530.073L480.76 447.542M435.281 705.902C435.281 705.902 455.882 639.922 512.246 583.898C512.246 583.898 659.023 452.637 673.175 433.188M722.153 727.432C722.153 727.432 836.714 629.609 830.349 555.192M627.695 479.837C627.695 479.837 707.582 518.808 762.136 522.952C816.691 527.096 848.33 589.515 942.554 601.84M219.985 662.842C219.985 662.842 203.912 671.576 208.811 757.426C208.811 757.426 262.786 853.804 1446.33 785.487" stroke="white" stroke-width="2" stroke-miterlimit="10"/>
</g>
</g>
<defs>
<clipPath id="clip0_2:2">
<rect width="1440" height="1137" fill="white"/>
</clipPath>
</defs>
</svg>
