<svg width="1366" height="808" viewBox="0 0 1366 808" fill="none" xmlns="http://www.w3.org/2000/svg">
<g id="Preloader" clip-path="url(#clip0_2:2)">
<rect width="1366" height="808" fill="white"/>
<g id="pants">
<rect id="Rectangle 2" width="1366" height="808" fill="#E4B599"/>
<path id="pants-complete" d="M-2.5 507C104 273.448 251.81 333.762 284.476 370.811C325.308 417.122 409.889 670.191 462.751 704.104C469.435 710.06 485.282 723.285 495.198 728.536C507.594 735.1 549.884 753.332 569.571 748.957M569.571 748.957V756.979C551.707 758.438 510.656 755.301 489.365 731.089C491.188 725.011 495.709 710.668 499.209 701.916C508.201 677.606 527.281 618.775 531.656 577.934C537.124 526.882 552.801 420.768 553.53 393.784C554.259 366.799 571.759 300.068 585.612 273.448C594.243 256.865 604.571 199.665 611.132 154.571M569.571 748.957C577.592 669.462 562.28 620.963 576.133 589.603C589.987 558.243 602.747 488.958 605.299 478.019C607.851 467.079 619.882 359.142 620.976 351.119C622.07 343.097 626.809 318.3 633.736 305.173C639.277 294.671 666.183 221.302 678.943 185.931C677.363 163.93 673.839 116.136 672.38 100.967C670.922 85.7971 672.988 81.2673 674.203 80.8985M666.912 84.5573C676.755 82.3693 669.829 61.9487 685.141 77.6288C700.453 93.3089 688.422 128.316 685.141 135.244C681.859 142.173 677.485 140.714 678.943 138.526C680.401 136.338 690.609 111.542 686.234 94.0382C684.143 85.6732 679.138 82.222 674.203 80.8985M666.912 84.5573C657.069 86.7452 635.923 96.9555 633.736 95.4969C631.548 94.0383 635.559 112.636 633.736 119.929C631.913 127.222 629.726 150.56 611.132 154.571M666.912 84.5573C668.613 114.824 674.276 182.503 683.318 211.092C692.359 239.681 685.627 355.009 681.13 409.099C680.037 453.952 677.703 554.013 677.12 595.437C676.537 636.862 656.218 715.044 646.131 748.957C662.78 759.167 703.078 774.409 731.077 753.697L729.254 742.757C718.074 751.509 687.255 764.345 653.423 745.675C649.655 742.15 645.256 736.631 657.798 742.757C673.474 750.415 724.15 747.498 729.254 735.829C725.973 703.496 721.379 628.985 729.254 589.603C737.129 550.22 744.444 510.473 747.118 495.522C749.427 456.018 752.659 369.06 747.118 337.262C740.191 297.515 748.941 211.092 755.138 192.13C761.336 173.168 759.513 79.0874 725.973 41.1634M611.132 154.571C615.103 127.279 617.695 104.422 617.695 97.6848C617.695 94.8294 617.63 92.8773 617.602 91.5859M611.132 154.571C611.011 152.748 611.934 147.861 616.601 142.902C622.434 136.703 622.07 90.3917 626.444 88.5684C629.944 87.1098 631.791 89.9723 632.278 91.5859M632.278 91.5859C633.192 91.3676 634.163 91.0938 635.194 90.7563C635.564 90.6353 635.929 90.5152 636.288 90.3961M632.278 91.5859C618.242 94.9354 617.465 85.2118 617.602 91.5859M636.288 90.3961C636.409 85.8972 636.361 76.0973 635.194 72.8883C633.736 68.8771 635.559 64.1366 638.475 65.5953C641.392 67.0539 644.308 85.0705 643.944 87.7333M636.288 90.3961C639.16 89.444 641.698 88.5556 643.944 87.7333M643.944 87.7333C656.647 83.0829 660.044 80.5461 662.172 80.5461C663.505 80.5461 668.812 79.4527 674.203 80.8985M617.602 91.5859C614.838 87.9059 612.007 79.598 622.799 75.8056C636.288 71.0651 662.902 58.6668 663.995 58.3022C664.623 58.0929 679.177 50.9189 692.432 43.3265M725.973 41.1634C723.785 38.6109 718.681 20.3782 713.577 28.4006C711.871 31.083 705.884 35.274 698.63 39.6783M725.973 41.1634C728.16 43.716 718.681 47.7272 716.129 50.6445C715.379 51.5024 711.579 54.5027 706.548 58.3022M674.203 80.8985C675.086 81.0975 687.511 72.366 698.63 64.1958M698.63 64.1958C698.63 58.6897 697.39 46.8072 692.432 43.3265M698.63 64.1958C701.546 71.548 702.275 67.4185 705.921 64.1958C708.838 61.6176 702.275 46.7766 698.63 39.6783M698.63 64.1958C701.419 62.146 704.126 60.1314 706.548 58.3022M692.432 43.3265C694.552 42.1122 696.639 40.8872 698.63 39.6783M692.432 43.3265C691.46 39.549 691.338 33.5309 698.63 39.6783M706.548 58.3022C705.853 55.7496 705.192 50.6445 708.109 50.6445C711.754 50.6445 716.129 70.7126 716.129 75.8056C716.129 80.8985 725.244 96.2383 749.67 88.5684L751.857 91.5859M706.548 58.3022C714.925 104.103 740.245 99.5749 751.857 91.5859M751.857 91.5859C786.978 110.636 874.426 145.236 943.258 131.233C1029.3 113.73 1135.5 28.4006 1155.5 -5" stroke="white" stroke-width="4"/>
</g>
<g id="sweatshirt">
<rect id="bgcolor" width="1366" height="808" fill="#E4B599"/>
<path id="sweatshirt-complete" d="M-5 447.546C10.1719 466.813 185.5 486.536 279.814 643.518C311.293 695.915 370.845 744.753 411.57 744.753M411.57 744.753C452.294 744.753 461.877 746.463 460.166 735.861C458.797 727.379 454.12 700.406 451.952 687.98M411.57 744.753C401.645 741.333 406.094 696.188 406.779 691.4C407.326 687.569 437.123 687.524 451.952 687.98M451.952 687.98C441.029 683.327 420.478 675.569 408.832 674.167M483.519 401.033C495.931 365.578 498.943 366.537 498.837 371.962C482.958 399.323 474.881 488.474 472.828 529.629C471.915 541.599 468.721 569.986 463.246 587.771C457.77 605.555 457.086 654.463 457.428 676.693C434.499 687.296 399.592 687.98 397.196 685.586C394.801 683.191 393.09 679.087 401.645 674.641C403.118 673.876 405.64 673.783 408.832 674.167M483.519 401.033C482.628 403.578 481.689 406.31 480.699 409.241C471.915 386.212 452.774 337.761 446.477 328.185C438.605 316.214 437.237 307.664 446.477 317.924C447.588 319.159 448.832 320.914 450.163 323.055M483.519 401.033L480.015 308.348C478.646 298.886 475.839 285.297 475.566 306.638C475.292 327.98 473.626 359.08 472.828 371.962C467.982 359.564 457.684 335.151 450.163 323.055M450.163 323.055C446.425 309.374 438.332 281.398 435.868 278.935C432.788 275.857 456.401 310.058 460.508 308.348C448.188 289.424 425.259 247.197 432.103 229.686C440.659 207.797 453.663 218.741 460.508 201.299C467.352 183.856 465.641 183.856 472.828 180.436C480.015 177.016 491.308 170.518 492.335 168.124C493.361 165.73 470.09 161.626 465.299 159.916C460.508 158.206 462.561 157.18 480.699 155.127C498.837 153.075 524.846 152.733 517.317 146.577C511.294 141.652 489.939 142.017 480.015 142.815C474.881 142.815 469.132 141.379 487.201 135.633C509.788 128.451 525.188 137.343 536.481 129.135M536.481 129.135C547.775 120.926 527.584 112.034 522.45 112.376M536.481 129.135C541.329 143.157 585.077 164.362 580.971 168.124M522.45 112.376C517.317 112.718 408.832 163.678 408.832 217.715C408.832 260.945 405.41 284.065 403.699 290.222C401.988 296.606 399.592 311.563 403.699 320.318C407.805 329.074 400.847 351.099 396.854 361.018C389.667 394.535 378.443 470.529 391.036 506.372C406.779 551.175 406.779 573.406 406.779 593.927C406.779 614.447 397.881 662.339 408.832 674.167M522.45 112.376C511.727 109.298 494.525 100.816 511.499 91.5135C516.861 92.8816 529.363 92.95 536.481 82.2792C545.379 68.9408 551.197 70.6509 558.726 70.9929C564.749 71.2665 570.818 73.843 573.099 75.097C573.67 75.325 572.483 77.6279 563.175 85.0153C551.539 94.2496 576.522 107.246 573.099 125.031C569.677 142.815 574.126 150.339 576.179 152.733C578.233 155.127 578.233 171.886 573.099 184.54C568.993 194.664 573.442 225.468 576.179 239.604C579.488 251.118 584.119 277.567 576.179 291.248C566.255 308.348 566.255 307.664 567.966 317.924C569.335 326.133 574.012 341.181 576.179 347.679H580.971L574.811 319.634C577.434 316.214 583.161 305.749 585.077 291.248C586.994 276.746 589.754 270.613 590.895 269.359C594.203 259.669 598.835 235.842 590.895 218.057C580.971 195.827 576.864 171.886 580.971 168.124M580.971 168.124L609.375 187.618M580.971 168.124C579.786 166.476 578.949 161.09 585.077 152.733C591.205 144.377 603.829 172.508 609.375 187.618M609.375 187.618C612.911 199.019 619.984 225.376 619.984 239.604C619.984 253.832 632.304 253.284 638.464 251.232C643.141 250.32 652.906 242.408 654.549 218.057C656.191 193.706 664.359 174.622 668.238 168.124C670.861 162.88 680.489 150.066 698.011 140.763C719.913 129.135 731.549 117.164 731.549 112.376C731.549 107.588 734.971 98.6957 718.545 82.2792C702.118 65.8627 712.042 59.3645 718.545 60.0486C725.047 60.7326 740.447 63.8107 751.056 70.9929C761.665 78.1751 767.482 67.9148 769.194 75.097C770.905 82.2792 769.194 90.1455 769.194 95.6177C769.194 101.09 775.354 107.93 786.989 112.376C798.625 116.822 801.705 129.135 798.283 129.135C794.86 129.135 774.669 134.949 769.194 140.763C764.813 145.414 751.398 146.577 745.238 146.577C730.751 145.095 702.118 144.73 703.487 155.127C705.198 168.124 697.327 212.243 700.407 218.057C703.487 223.872 712.042 268.675 706.224 284.749C700.407 300.824 703.487 315.188 703.487 323.055H698.011L695.273 297.404C692.193 299.342 686.512 298.84 688.429 281.329C690.824 259.441 693.22 245.418 690.824 231.738C688.429 218.057 681.584 207.797 688.429 192.749C695.273 177.7 698.011 164.704 698.011 159.916C698.011 155.127 696.984 144.525 731.549 138.369C766.114 132.213 749.002 140.079 776.038 125.031C797.667 112.992 835.699 138.483 852.012 152.733C872.089 165.958 910.053 215.253 901.292 306.638C890.341 420.87 934.83 348.021 915.323 587.771C925.02 618.666 937.568 680.934 910.19 682.849C875.967 685.244 856.118 679.429 851.327 669.169M851.327 669.169C847.494 660.961 845.624 611.483 845.167 587.771C847.335 559.612 850.369 499.464 845.167 484.141C838.665 464.989 843.456 464.647 841.745 453.019C840.87 447.07 835.47 434.186 830.109 422.538M851.327 669.169C850.415 672.361 848.521 682.302 848.247 696.53C847.905 714.314 840.034 729.363 858.514 736.887C876.994 744.411 910.874 750.568 918.061 736.887C923.81 725.943 921.597 701.774 919.772 691.058C901.748 692.882 864.263 693.794 858.514 682.849C851.327 669.169 901.634 733.467 1026.55 669.169C1126.48 617.731 1356.49 470.005 1372 453.019M830.109 422.538C827.087 415.97 824.076 409.795 821.896 405.479C815.964 397.157 802.8 380.649 797.598 381.196C791.096 381.88 805.469 370.594 825.318 400.007C829.425 379.828 842.156 336.188 860.225 323.055C882.812 306.638 845.167 336.393 830.109 405.479C836.726 397.043 850.985 381.607 855.092 387.353C852.924 391.087 846.262 399.94 836.954 405.479C825.318 412.403 837.638 418.475 851.327 418.475C865.016 418.475 868.781 421.896 866.385 426.342C863.99 430.788 842.772 434.809 830.109 422.538ZM830.109 422.538C823.607 412.52 809.85 395.082 806.838 405.479C803.074 418.475 811.629 414.413 811.629 418.475C811.629 422.538 812.998 426.684 806.838 435.918C800.678 445.152 825.318 482.431 825.318 518C825.318 553.57 832.163 630.18 821.896 669.169C821.668 676.579 823.607 695.983 833.189 714.314C845.167 737.229 772.274 724.233 750.714 727.995C729.153 731.757 690.824 726.285 664.473 738.939C638.122 751.594 480.699 738.939 480.699 719.103C480.699 699.266 488.57 620.262 480.699 597.347C474.308 578.743 500.628 573.665 513.32 556.306M513.32 556.306C516.26 552.284 518.469 547.603 519.37 541.941C524.161 511.844 525.53 469.093 535.113 466.699C542.778 464.784 709.419 453.133 791.78 447.546C785.164 466.585 775.901 512.118 791.78 541.941C811.629 579.22 824.634 595.295 818.132 617.184C812.93 634.694 810.945 637.476 810.603 636.678C813.226 641.238 815.805 650.701 805.127 652.069C791.78 653.779 674.74 656.515 672.002 652.069C669.264 647.622 675.767 646.254 685.691 643.518C695.616 640.782 733.26 637.02 775.696 643.518C818.132 650.016 811.972 616.842 808.549 604.871C805.127 592.901 763.376 504.662 763.376 486.536C763.376 468.409 763.034 464.305 757.558 461.911C752.082 459.517 721.625 455.755 676.451 461.911C640.312 466.836 578.803 469.435 552.566 470.119C548.573 476.275 538.466 497.89 529.979 535.101C521.492 572.312 514.807 587.315 512.526 590.165C505.225 600.881 490.692 627.17 490.966 646.596C491.308 670.879 486.517 669.853 502.944 670.537C519.37 671.221 566.597 668.827 574.126 662.671C581.655 656.515 651.811 672.094 664.131 662.671C676.451 653.248 650.1 652.069 642.571 653.779C635.042 655.489 535.797 668.827 519.37 648.99C502.943 629.154 489.597 627.444 497.126 607.607C503.149 591.738 510.431 566.794 513.32 556.306Z" stroke="white" stroke-width="4"/>
</g>
<g id="shoe">
<rect id="bgcolor_2" width="1366" height="808" fill="#E4B599"/>
<path id="shoe-complete" d="M0 585.257H201.634C200.53 594.138 235.429 612.929 383.862 617.043C438.136 617.043 557.476 617.043 600.642 617.043C654.601 617.043 804.643 629.664 937.173 617.043C1069.7 604.422 1128.39 564.69 1147.8 546.46C1147.8 532.904 1145.72 501.773 1137.39 485.693C1136.48 484.536 1133.65 483.634 1128.87 487.342M421.728 512.337C350.099 506.883 208.166 490.835 213.467 470.267C213.514 457.187 214.083 439.116 215.463 418.849M421.728 512.337C426.65 452.879 543.055 347.954 600.642 302.925M421.728 512.337C481.313 517.076 589.488 525.006 688.207 530.656M1128.87 487.342C1127.85 488.129 1126.75 489.123 1125.55 490.367C1118.74 497.472 1082.64 509.844 1065.44 515.141C1034.83 523.244 946.639 538.981 838.722 537.111C799.188 536.426 745.278 533.922 688.207 530.656M1128.87 487.342C1122.05 445.283 1108.36 426.025 1102.36 421.654C1048.4 410.279 934.617 386.128 911.14 380.519C904.007 378.815 886.147 371.601 862.861 361.487M1128.87 487.342C1073.65 469.185 951.277 441.473 903.567 475.877C889.367 483.823 865.985 487.562 886.054 438.949C889.202 431.324 891.187 424.322 892.236 417.914M862.861 361.487L836.356 345.461C832.884 335.968 820.452 320.11 798.49 332.624M862.861 361.487C844.021 353.304 821.628 343.222 798.49 332.624M862.861 361.487C876.43 366.179 897.873 383.467 892.236 417.914M798.49 332.624C792.841 330.036 787.147 327.418 781.45 324.789M798.49 332.624L781.45 324.789M781.45 324.789C783.817 319.682 785.048 307.973 771.037 301.99C757.027 296.007 750.144 304.483 748.454 309.469M781.45 324.789C770.365 319.673 759.266 314.517 748.454 309.469M748.454 309.469C743.73 307.263 739.06 305.077 734.471 302.925M734.471 302.925C736.878 299.029 739.041 289.556 728.439 282.825C715.186 274.411 706.666 279.69 702.879 288.035M734.471 302.925C723.351 297.709 712.702 292.688 702.879 288.035M702.879 288.035C704.142 286.922 705.246 283.853 699.566 280.488C693.886 277.122 689.626 274.723 688.207 273.943L686.313 280.166M702.879 288.035C697.04 285.269 691.493 282.634 686.313 280.166M686.313 280.166C684.533 279.318 682.797 278.49 681.107 277.683C673.856 274.06 664.482 269.29 654.588 264.127M686.313 280.166C688.364 275.599 689.153 265.156 675.9 259.92C662.647 254.685 656.17 260.544 654.588 264.127M654.588 264.127C656.012 262.881 657.63 259.546 652.708 256.181C647.785 252.815 642.768 249.169 640.875 247.767C641.506 249.797 642.389 254.464 640.875 256.889M654.588 264.127C651.944 262.748 649.264 261.341 646.577 259.92M640.875 256.889C641.821 252.446 641.727 242.345 633.775 237.483C623.835 231.407 618.155 230.404 611.055 240.254M640.875 256.889C630.01 251.083 619.393 245.219 611.055 240.254M640.875 256.889C642.771 257.903 644.676 258.915 646.577 259.92M611.055 240.254C602.788 235.331 596.763 231.292 594.963 229.069C588.904 221.59 581.079 219.721 577.923 219.721C553.689 213.737 502.192 246.832 479.473 264.127C477.285 265.375 474.91 266.714 472.373 268.127M611.055 240.254C613.895 237.617 618.439 231.687 613.895 229.069C608.216 225.797 596.383 219.721 584.076 207.567C571.77 195.414 556.15 179.521 541.951 182.326C527.751 185.13 515.445 189.805 497.459 208.97C479.473 228.135 472.846 250.625 472.373 268.127M472.373 268.127C437.223 287.702 370.915 321.532 338.423 326.764C294.878 333.775 286.358 316.013 279.732 306.197C273.105 296.38 261.746 284.695 253.226 277.683C246.41 272.074 243.444 273.476 242.813 274.878C226.567 310.386 218.734 370.793 215.463 418.849M472.373 268.127C504.085 271.78 574.137 283.853 600.642 302.925M472.373 268.127L215.463 418.849M600.642 302.925L646.577 259.92M600.642 302.925C622.415 313.52 678.456 336.861 728.439 345.461C753.556 349.783 773.633 361.056 793.214 373.508M892.236 417.914C850.363 413.162 822.339 392.03 793.214 373.508M793.214 373.508C791.501 404.729 768.103 479.869 688.207 530.656M213.467 476.811C208.418 490.523 199.835 526.921 205.894 562.82C225.458 576.22 304.912 603.674 466.22 606.292C667.854 609.564 1207.44 607.694 1366 585.257" stroke="white" stroke-width="4"/>
</g>
</g>
<defs>
<clipPath id="clip0_2:2">
<rect width="1366" height="808" fill="white"/>
</clipPath>
</defs>
</svg>
