<svg width="1440" height="1137" viewBox="0 0 1440 1137" fill="none" xmlns="http://www.w3.org/2000/svg">
<g clip-path="url(#clip0)">
<rect width="1440" height="1137" fill="white"/>
<rect x="-35.8851" width="1541.9" height="1137" fill="#E4B599"/>
<path d="M717.907 138.139C717.907 138.139 708.875 123.8 710.935 120.776C712.995 117.752 717.907 115.532 722.047 127.945C726.187 140.359 731.357 152.202 731.615 154.422C731.872 156.643 722.008 165.165 721.116 159.646C720.225 154.126 721.79 144.927 717.907 138.139Z" stroke="white" stroke-width="2" stroke-miterlimit="10"/>
<path d="M759.607 125.592C759.607 125.592 690.171 181.068 679.143 183.005" stroke="white" stroke-width="2" stroke-miterlimit="10"/>
<path d="M794.592 190.483C785.16 197.14 759.957 201.861 750.15 190.483C740.342 179.104 731.993 144.99 731.993 144.99C731.993 144.99 729.254 123.999 738.619 147.479C747.985 170.959 744.473 178.19 751.872 186.931C757.505 193.545 771.156 201.415 792.847 186.931" stroke="white" stroke-width="2" stroke-miterlimit="10"/>
<path d="M610.205 195.522L598.679 279.89C598.679 279.89 643.919 273.249 631.509 193.77" stroke="white" stroke-width="2" stroke-miterlimit="10"/>
<path d="M598.433 278.889C598.433 278.889 596.49 382.143 559.522 456.624C522.554 531.106 515.607 680.776 515.607 680.776C515.607 680.776 493.98 844.919 491.892 870.946C489.803 896.974 457.487 1022.25 430.754 1064.83C430.754 1064.83 466.399 1119.45 543.126 1105C543.126 1105 549.329 1054.36 546.207 955.547C543.085 856.732 573.333 858.318 595.043 705.646C616.752 552.974 608.978 539.317 632.259 483.059C655.54 426.802 693.459 322.262 693.459 322.262L683.431 180.567C684.78 178.08 686.707 175.982 689.035 174.462C691.364 172.942 694.021 172.049 696.767 171.862C706.629 170.833 714.031 222.01 710.578 234.809C707.125 247.609 696.788 261.052 693.335 261.052C691.949 261.052 693.149 259.058 695.092 256.764C700.571 250.032 707.063 232.944 707.663 224.175C710.537 182.904 685.23 179.002 675.057 178.08C663.706 177.072 636.063 197.526 608.895 195.489C608.895 195.489 599.012 175.507 616.773 171.905C634.533 168.303 736.195 118.606 741.178 105.314C746.161 92.0211 792.867 188.714 797.003 199.455C801.138 210.197 806.389 308.433 793.053 363.705C779.718 418.976 790.593 547.379 790.593 547.379C790.593 547.379 806.865 672.222 774.053 815.996C741.24 959.771 766.402 1101.14 766.402 1101.14C766.402 1101.14 714.01 1137.36 647.414 1096.6C647.414 1096.6 680.164 973.214 683.452 947.186C690.377 896.555 694.024 845.5 694.368 794.364C695.444 712.893 695.444 643.814 698.731 597.419C702.018 551.023 714.01 410.636 697.635 346.124C681.26 281.612 677.787 182.325 677.787 182.325L645.512 187.899C645.512 187.899 643.217 156.597 639.164 156.597C635.112 156.597 631.08 156.876 633.789 172.248C636.497 187.621 634.326 194.631 637.014 194.91C639.702 195.189 645.905 191.265 645.905 191.265L645.512 187.899" stroke="white" stroke-width="2" stroke-miterlimit="10"/>
<path d="M626.667 192.801C626.667 192.801 620.729 182.071 620.333 204.045C619.937 226.019 629.2 252.07 598.679 272.713" stroke="white" stroke-width="2" stroke-miterlimit="10"/>
<path d="M546.202 1095.22C546.202 1095.22 474.82 1107.82 437.752 1059.9C437.752 1059.9 429.878 1052.72 437.752 1071.56C445.625 1090.4 527.722 1106.27 545.79 1100.37" stroke="white" stroke-width="2" stroke-miterlimit="10"/>
<path d="M651.155 1085.53C651.155 1085.53 715.25 1114.16 758.489 1085.53C758.489 1085.53 773.118 1081.57 750.297 1096.05C727.476 1110.52 657.174 1093.77 652.786 1080.09" stroke="white" stroke-width="2" stroke-miterlimit="10"/>
<path d="M-122 757.538C-122 757.538 -28.7675 542.67 99.8161 549.159C228.4 555.648 264.402 934.965 430.754 1062.15" stroke="white" stroke-width="2" stroke-miterlimit="10"/>
<path d="M798.091 199.849C798.091 199.849 1036.63 315.352 1209.5 199.849C1382.37 84.3453 1382.33 21.53 1382.33 21.53" stroke="white" stroke-width="2" stroke-miterlimit="10"/>
<rect x="-1.50726" width="1541.9" height="1137" fill="#E4B599"/>
<path d="M666.19 214.035C666.19 214.035 664.134 323.517 624.331 402.472C584.528 481.427 577.044 640.114 577.044 640.114C577.044 640.114 553.791 814.117 551.55 841.808C549.309 869.498 514.543 1002.2 485.76 1047.35C485.76 1047.35 524.103 1105.27 606.629 1089.93C606.629 1089.93 613.29 1036.27 609.96 931.477C606.629 826.68 639.175 828.403 662.571 666.46C685.968 504.516 677.58 490.125 702.58 430.499C727.581 370.873 768.371 260.11 768.371 260.11L757.618 109.743C759.071 107.098 761.149 104.868 763.663 103.256C766.178 101.645 769.047 100.704 772.01 100.519C782.618 99.4478 790.513 153.674 786.874 167.246C783.235 180.819 772.03 195.063 768.371 195.063C766.89 195.063 768.186 192.962 770.283 190.441C776.163 183.298 783.153 165.229 783.79 155.901C786.874 112.138 759.653 107.999 748.716 107.032C736.503 105.94 706.774 127.643 677.58 125.479C677.58 125.479 666.951 104.28 686.071 100.498C705.191 96.7165 814.424 44.108 819.728 30.0315C825.032 15.9549 875.465 118.441 879.721 129.828C883.976 141.215 889.815 245.382 875.465 303.957C861.114 362.532 872.813 498.718 872.813 498.718C872.813 498.718 890.309 631.079 855.09 783.463C819.872 935.847 846.867 1085.9 846.867 1085.9C846.867 1085.9 790.493 1124.28 718.863 1081.09C718.863 1081.09 754.082 950.281 757.618 922.674C761.154 895.067 768.185 847.039 769.357 760.668C770.529 674.297 770.529 600.993 774.045 551.851C777.561 502.71 790.493 353.855 772.873 285.447C755.254 217.04 751.532 111.802 751.532 111.802L716.807 117.705C716.807 117.705 714.34 84.5099 709.982 84.5099C705.623 84.5099 701.285 84.825 704.184 101.129C707.083 117.432 704.76 124.828 707.658 125.122C710.557 125.416 717.239 121.277 717.239 121.277L716.807 117.705" stroke="white" stroke-width="2" stroke-miterlimit="10"/>
<path d="M-53 751.705C-53 751.705 37.8722 542.848 163.2 549.155C288.529 555.462 323.62 924.169 485.76 1047.79" stroke="white" stroke-width="2" stroke-miterlimit="10"/>
<rect width="1541.9" height="1137" fill="#E4B599"/>
<path d="M4.94995 954.93C25.0343 953.866 39.3543 954.749 41.5103 959.749C44.4378 966.536 27.8938 969.432 4.94995 970.45" stroke="white" stroke-width="2" stroke-miterlimit="10"/>
<path d="M4.94993 654.294C115.403 646.647 239.585 638.321 239.585 638.321C239.585 638.321 198.236 743.367 278.165 849.748C278.165 849.748 290.647 892.576 269.655 926.807C269.655 926.807 276.009 950.88 264.571 952.78C253.134 954.681 54.7864 959.748 48.9766 952.146C43.1669 944.545 88.3737 935.043 101.741 933.142C115.107 931.242 182.464 933.142 214.894 940.11C247.324 947.079 268.929 930.608 268.929 912.961C268.929 895.314 271.47 882.554 251.772 845.789C232.073 809.024 190.747 704.453 192.018 675.923C193.289 647.394 126.523 646.149 68.6752 658.819C52.6304 662.326 29.6185 664.973 4.76837 666.941" stroke="white" stroke-width="2" stroke-miterlimit="10"/>
<path d="M4.94995 1090.88C17.7994 1089.42 30.4718 1086.69 42.7812 1082.74C131.084 1052.92 322.623 1084.16 304.105 1047.24C285.586 1010.31 288.378 978.912 288.378 978.912C288.378 978.912 301.994 755.924 288.378 713.752C274.761 671.579 265.683 631.624 262.665 619.633C259.647 607.642 279.3 597.009 269.473 590.946C259.647 584.882 257.377 580.403 268.724 572.009C274.216 567.914 281.683 573.502 288.423 581.285C294.451 588.506 299.77 596.287 304.309 604.52C308.848 612.801 366.264 615.832 356.506 600.742C346.747 585.651 308.144 599.995 307.395 585.674C306.646 571.353 353.487 537.461 335.355 543.502C321.125 548.23 306.896 566.398 301.313 574C299.725 577.258 299.044 577.371 299.044 577.371C299.044 577.371 299.884 576.081 301.313 574C303.787 568.909 308.598 556.081 317.199 523.909C331.088 471.375 348.563 446.985 349.652 445.628" stroke="white" stroke-width="2" stroke-miterlimit="10"/>
<path d="M4.94995 330.514C26.7818 314.202 16.8417 250.084 45.0506 203.002C75.2792 152.527 96.4302 182.979 143.294 122.549C143.294 122.549 150.851 112.594 120.6 68.2502C90.3482 23.906 152.371 46.1686 171.23 58.3406C190.089 70.5126 201.436 59.947 203.706 69.6529C205.975 79.3589 203.706 100.535 203.706 100.535C203.706 100.535 205.226 111.418 227.898 122.549C240.765 128.861 247.778 134.269 250.047 138.726C251.817 142.119 250.819 144.97 247.551 147.255C239.994 152.527 206.701 163.092 196.92 169.88C187.139 176.667 147.787 172.142 136.463 174.405C125.138 176.667 102.058 170.558 100.356 189.065C98.6543 207.572 99.4259 244.36 97.1564 271.532C94.887 298.704 105.485 322.822 105.485 340.152C105.485 357.483 108.095 383.84 100.356 395.899C92.6176 407.958 100.356 447.121 100.356 447.121H91.1425L87.3752 407.415C87.3752 407.415 71.4893 413.976 76.777 385.334C82.0648 356.691 82.8364 332.618 81.3159 316.035C79.7954 299.451 66.2016 264.813 76.0282 248.998C85.8547 233.183 91.9141 203.749 91.9141 203.749C91.9141 203.749 85.1058 169.088 131.22 164.586C177.335 160.083 152.371 172.866 218.865 139.698C218.865 139.698 228.601 133.952 250.093 138.703C270.517 143.228 301.608 157.21 345.068 194.676C434.233 271.6 408.611 429.723 410.881 454.587C413.15 479.452 418.438 528.411 434.301 631.602C450.165 734.793 432.781 853.097 434.301 860.631C435.822 868.165 450.913 929.183 449.416 968.346C447.918 1007.51 432.781 1000.02 432.781 1000.02C432.781 1000.02 356.46 1010.59 339.848 984.183C330.067 968.685 327.616 961.265 327.389 965.427C327.23 968.346 328.183 976.966 328.501 992.577C329.273 1030.22 327.003 1068.64 336.83 1077.69C346.656 1086.74 388.209 1102.58 419.936 1092.76C419.936 1092.76 434.301 1088.98 438.84 1083.71C443.379 1078.44 440.338 1009.88 440.338 1009.88C440.338 1009.88 340.756 1041.36 327.389 965.518C326.85 962.523 326.464 959.502 326.232 956.468C319.423 869.092 324.734 734.25 324.734 734.25C324.734 734.25 327.003 701.105 317.926 676.24C308.848 651.376 323.962 658.141 314.158 640.041C304.649 622.53 289.444 583.796 288.514 581.398V581.285C288.514 581.285 274.148 546.624 255.244 539.09C236.34 531.556 263.573 527.054 293.03 568.842C293.03 568.842 292.281 505.244 349.765 445.741" stroke="white" stroke-width="2" stroke-miterlimit="10"/>
<path d="M1537.67 822.938C1387.48 1000.65 1168.91 1009.57 1133.53 1009.82C1128.99 1009.82 1124.45 1009.82 1119.92 1010.07C1047.29 1012.12 543.96 1025.9 440.247 1009.79" stroke="white" stroke-width="2" stroke-miterlimit="10"/>
<rect x="-6.74591" width="1541.9" height="1137" fill="#E4B599"/>
<path d="M351.857 984.548L363.367 1051.37C363.367 1051.37 368.443 1067.27 351.857 1068.61C335.271 1069.95 298.764 1069.08 294.708 1068.61C290.652 1068.14 287.785 1064.88 287.785 1041.02V987.824C287.785 987.824 302.65 984.548 342.64 987.35C342.64 987.35 361.987 983.147 292.393 967.24C292.393 967.24 266.59 965.839 272.112 979.871C277.633 993.902 361.541 969.093 361.541 969.093C361.541 969.093 358.313 887.187 371.204 832.03C384.095 776.873 385.029 710.421 385.029 698.243C385.029 686.065 397.772 609.871 399.556 591.162C401.339 572.453 421.769 522.857 421.769 522.857C421.769 522.857 414.995 514.709 395.839 578.617C395.839 578.617 348.926 457.052 338.499 447.029C328.071 437.006 342.215 428.234 357.612 460.199C366.981 479.644 375.013 499.722 381.653 520.292C381.653 520.292 389.064 566.03 387.811 414.374C387.811 414.374 392.759 388.057 398.324 541.544C398.324 541.544 400.915 575.902 390.827 565.642" stroke="white" stroke-width="2" stroke-miterlimit="10"/>
<path d="M351.826 450.849C351.826 450.849 331.419 393.745 326.99 386.099C322.561 378.452 371.484 447.833 367.561 430.773C367.561 430.773 322.48 366.432 322.48 337.848C322.48 309.264 327.617 307.433 340.682 298.322C353.747 289.21 362.929 285.549 365.821 274.628C368.714 263.707 377.815 246.625 384.65 244.234C391.486 241.843 409.79 227.196 409.79 227.196C409.79 227.196 422.349 224.159 398.929 219.291C375.509 214.422 353.242 212.592 371.525 210.179C389.808 207.767 450.907 201.563 452.039 198.009C453.172 194.455 443.484 192.538 426.92 189.393C410.356 186.248 378.381 191.547 392.073 183.598C405.765 175.65 477.745 173.884 477.745 166.581C477.745 159.279 457.277 143.533 457.277 143.533C457.277 143.533 374.478 175.844 322.52 236.587C270.563 297.331 302.538 299.227 285.408 389.847C268.278 480.467 296.248 406.26 269.977 518.787C243.705 631.313 266.559 727.383 266.559 727.383C266.559 727.383 287.673 761.438 285.974 833.814C284.276 906.189 282.536 946.857 286.541 957.886C290.545 968.915 295.945 968.85 295.945 968.85" stroke="white" stroke-width="2" stroke-miterlimit="10"/>
<path d="M462.469 143.673C462.469 143.673 425.157 137.07 433.474 121.305C441.791 105.539 452.901 119.154 465.408 111.282C477.914 103.41 485.522 83.3219 495.944 82.6337C506.366 81.9454 524.397 84.7844 529.941 89.7958C535.486 94.8071 513.995 99.8184 513.995 107.712C513.995 115.605 530.858 140.64 530.858 140.64C530.858 140.64 538.029 148.448 530.858 166.751C523.688 185.054 526.002 184.323 533.172 200.088C540.342 215.853 533.172 244.48 533.172 244.48C533.172 244.48 522.521 260.245 533.172 311.8C543.823 363.354 541.051 388.432 541.051 388.432C541.051 388.432 538.967 399.186 527.857 417.79C524.625 423.084 522.684 429.107 522.201 435.344C521.719 441.58 522.708 447.845 525.084 453.601L533.172 488.013H541.385L533.172 447.923C533.172 447.923 545.22 437.169 545.908 421.425C546.596 405.681 546.596 393.465 554.245 374.108C561.895 354.751 563.959 332.576 561.186 320.338C558.414 308.1 542.031 262.547 538.967 245.061C535.902 227.575 539.654 192.066 554.933 204.949C570.212 217.832 582.698 252.266 582.698 252.266C582.698 252.266 498.446 196.346 483.667 166.643" stroke="white" stroke-width="2" stroke-miterlimit="10"/>
<path d="M581.302 253.456C581.302 253.456 591.104 280.644 598.129 337.901C598.129 337.901 600.926 354.343 627.575 345.058C654.225 335.773 641.584 269.188 669.642 221.238C697.701 173.288 717.261 202.238 760.695 144.831C760.695 144.831 767.699 135.374 739.662 93.2484C711.624 51.1225 769.109 72.2714 786.587 83.8345C804.066 95.3976 814.604 85.382 816.707 94.5809C818.81 103.78 816.707 123.919 816.707 123.919C816.707 123.919 818.095 134.257 839.108 144.831C860.12 155.406 864.348 163.272 857.322 168.28C850.297 173.288 819.462 183.325 810.397 189.772C801.332 196.22 764.881 191.922 754.364 194.071C743.847 196.22 722.478 190.417 720.921 207.998C719.365 225.579 720.059 260.527 717.956 286.34C715.852 312.152 725.654 335.042 725.654 351.506C725.654 367.969 728.073 393.008 720.921 404.464C713.77 415.92 720.921 453.124 720.921 453.124H712.34L708.848 415.425C708.848 415.425 694.125 421.637 699.047 394.448C703.968 367.26 704.641 344.349 703.253 328.616C701.865 312.883 689.266 279.956 698.353 264.911C707.439 249.866 713.076 221.926 713.076 221.926C713.076 221.926 706.766 188.999 749.485 184.7C792.203 180.402 769.088 192.567 830.715 161.058C830.715 161.058 865.042 140.318 947.682 213.307C1030.32 286.297 1006.57 436.596 1008.68 460.195C1010.78 483.794 1015.68 530.326 1030.38 628.376C1045.09 726.426 1028.98 838.769 1030.38 845.926C1031.79 853.083 1045.8 911.049 1044.39 948.274C1042.98 985.5 1028.98 978.364 1028.98 978.364C1028.98 978.364 958.24 988.38 942.844 963.319C927.448 938.259 931.633 935.379 932.327 971.186C933.021 1006.99 930.939 1043.47 940.046 1052.06C949.154 1060.66 987.666 1075.71 1017.07 1066.38C1017.07 1066.38 1030.38 1062.79 1034.59 1057.78C1038.8 1052.77 1035.98 987.649 1035.98 987.649C1035.98 987.649 936.534 1019.89 930.245 936.84C923.956 853.792 928.836 725.717 928.836 725.717C928.836 725.717 930.939 694.23 922.526 670.631C914.112 647.031 928.142 653.436 919.034 636.242C909.927 619.048 895.224 580.361 895.224 580.361C895.224 580.361 881.91 547.455 864.411 540.298C846.911 533.141 872.109 528.843 899.431 568.561C899.431 568.561 898.716 508.081 952.014 451.555C952.014 451.555 935.188 474.444 921.895 525.984C908.602 577.524 905.068 576.793 905.068 576.793C905.068 576.793 921.895 550.314 938.721 544.554C955.548 538.794 912.114 571.033 912.808 584.638C913.502 598.243 949.238 584.638 958.324 598.952C967.411 613.266 914.154 610.408 909.948 602.52C905.741 594.632 887.526 563.661 877.031 571.635C866.535 579.609 868.617 583.929 877.725 589.646C886.832 595.363 868.617 605.486 871.415 616.877C874.212 628.268 882.604 666.311 895.224 706.287C907.844 746.264 895.224 958.204 895.224 958.204C895.224 958.204 892.658 988.036 909.822 1023.11C926.985 1058.19 749.442 1028.51 667.602 1056.83C585.761 1085.16 398.375 1048.73 398.375 1027.15C398.375 1005.57 401.677 877.456 394.421 850.482C387.164 823.509 443.912 816.76 453.798 753.356C463.684 689.953 467.659 663.667 476.935 661.647C486.21 659.626 850.045 634.63 850.045 634.63C850.045 634.63 811.722 734.443 885.907 835.48C885.907 835.48 897.454 876.188 877.998 908.685C877.998 908.685 883.909 931.574 873.287 933.38C862.665 935.185 678.855 940 673.47 932.778C668.085 925.557 710.005 916.53 722.373 914.724C734.74 912.919 797.209 914.724 827.245 921.344C857.28 927.964 877.325 912.295 877.325 895.445C877.325 878.595 879.681 866.537 861.424 831.633C843.167 796.729 804.865 697.368 806.043 670.265C807.221 643.163 745.341 641.959 691.727 654.017C638.113 666.074 500.828 667.256 500.828 667.256C500.828 667.256 485.516 662.442 461.349 796.707C461.349 796.707 460.907 817.168 420.46 879.798C413.879 900.021 410.188 921.107 409.502 942.407C408.324 977.934 509.663 949.628 533.241 949.027C556.819 948.425 673.47 956.85 666.403 940C659.336 923.149 510.756 955.646 484.906 943.61C459.056 931.574 403.15 909.222 420.46 861.723C437.77 814.224 453.735 753.356 453.735 753.356" stroke="white" stroke-width="2" stroke-miterlimit="10"/>
<path d="M-96 671.018C-96 671.018 13.9115 730.335 89.5619 896.882C165.212 1063.43 292.328 1069.32 292.328 1069.32" stroke="white" stroke-width="2" stroke-miterlimit="10"/>
<path d="M1034 986.761C1034 986.761 1260.38 993.472 1411.83 807.375" stroke="white" stroke-width="2" stroke-miterlimit="10"/>
<rect x="-1.51532" width="1541.52" height="1136.71" fill="#E4B599"/>
<path d="M410.593 1000.39L422.389 1068.65C422.389 1068.65 427.56 1084.9 410.593 1086.26C393.625 1087.63 356.28 1086.75 352.131 1086.26C347.982 1085.78 345.049 1082.45 345.049 1058.08V1003.73C345.049 1003.73 360.256 1000.39 401.164 1003.25C401.164 1003.25 420.977 998.954 349.763 982.703C349.763 982.703 323.367 981.272 329.038 995.607C334.708 1009.94 420.499 984.597 420.499 984.597C420.499 984.597 417.197 900.922 430.406 844.573C443.614 788.224 444.548 720.337 444.548 707.896C444.548 695.455 457.583 617.615 459.386 598.502C461.189 579.388 482.132 528.721 482.132 528.721C482.132 528.721 475.18 520.397 455.606 585.686C455.606 585.686 407.594 461.494 396.949 451.255C386.304 441.016 400.729 432.054 416.502 464.709C426.078 484.575 434.287 505.087 441.072 526.101C441.072 526.101 448.654 572.827 447.394 417.895C447.394 417.895 452.434 391.009 458.126 547.812C458.126 547.812 460.798 582.912 450.457 572.43" stroke="white" stroke-width="2" stroke-miterlimit="10"/>
<path d="M409.706 454.003C409.706 454.003 388.342 395.673 383.727 387.862C379.111 380.051 430.307 450.923 426.072 433.496C426.072 433.496 378.878 367.773 378.878 338.575C378.878 309.377 384.256 307.507 397.934 298.2C411.611 288.892 421.224 285.152 424.23 273.996C427.237 262.841 436.786 245.392 443.963 242.95C451.141 240.508 470.45 225.436 470.45 225.436C470.45 225.436 483.599 222.333 459.102 217.361C434.605 212.388 411.272 210.518 430.391 208.053C449.51 205.589 513.495 199.252 514.68 195.622C515.866 191.991 505.724 190.033 488.384 186.82C471.043 183.608 437.569 189.021 451.924 180.901C466.279 172.782 541.591 170.978 541.591 163.519C541.591 156.06 520.079 139.91 520.079 139.91C520.079 139.91 433.271 172.914 378.984 234.963C324.697 297.012 358.065 298.948 340.132 391.515C322.199 484.081 351.481 408.281 323.977 523.225C296.474 638.169 320.399 736.302 320.399 736.302C320.399 736.302 342.524 771.089 340.725 845.019C338.925 918.949 337.125 960.491 341.318 971.757C345.51 983.022 351.163 982.956 351.163 982.956" stroke="white" stroke-width="2" stroke-miterlimit="10"/>
<path d="M520.749 141.131C520.749 141.131 481.69 134.413 490.392 118.373C499.093 102.333 510.739 116.185 523.802 108.175C536.865 100.166 544.869 79.7275 555.751 79.0273C566.634 78.327 585.52 81.2156 591.343 86.3143C597.165 91.4131 574.637 96.5118 574.637 104.543C574.637 112.574 592.302 138.046 592.302 138.046C592.302 138.046 599.782 145.989 592.302 164.612C584.822 183.234 587.199 182.49 594.723 198.53C602.247 214.571 594.723 243.697 594.723 243.697C594.723 243.697 583.579 259.737 594.723 312.191C605.867 364.644 602.945 390.16 602.945 390.16C602.945 390.16 600.764 401.101 589.162 420.03C585.78 425.416 583.75 431.544 583.245 437.89C582.739 444.235 583.775 450.609 586.261 456.465L594.723 491.478H603.294L594.723 450.688C594.723 450.688 607.306 439.747 608.026 423.728C608.746 407.71 608.767 395.28 616.749 375.586C624.731 355.891 626.912 333.33 624.012 320.878C621.111 308.427 603.991 262.079 600.764 244.288C597.536 226.497 601.505 190.368 617.469 203.476C633.433 216.584 646.518 251.619 646.518 251.619C646.518 251.619 558.368 194.723 542.906 164.502" stroke="white" stroke-width="2" stroke-miterlimit="10"/>
<path d="M-46 674.437C-46 674.437 65.8637 735.876 142.858 908.381C219.852 1080.89 349.225 1086.99 349.225 1086.99" stroke="white" stroke-width="2" stroke-miterlimit="10"/>
<rect x="3.05634" width="1541.9" height="1137" fill="#E4B599"/>
<path d="M136.819 516.31L137.509 515.821C162.115 498.435 176.176 530.121 176.176 530.121C185.766 534.202 195.011 539.077 203.816 544.698C258.573 580.384 234.971 618.922 234.971 618.922C192.475 686.869 243.131 671.186 243.131 671.186C304.96 625.604 476.115 678.549 485.844 681.634L486.284 681.783C486.274 681.649 486.274 681.514 486.284 681.379C469.21 607.367 454.689 611.155 454.689 611.155C333.918 584.427 254.263 566.063 254.263 566.063C254.263 566.063 234.218 557.7 203.9 544.655C185.069 536.548 162.053 526.61 137.593 515.778C131.044 512.884 124.369 509.926 117.632 506.905C106.626 501.989 95.4113 496.946 84.1544 491.838C54.8615 478.517 25.5685 464.834 0 452.13" stroke="white" stroke-width="2" stroke-miterlimit="10"/>
<path d="M0 823.749C110.206 826.569 279.171 827.424 358.222 809.905C362.816 808.879 367.291 807.839 371.646 806.785C482.861 779.737 507.272 742.433 507.272 742.433C507.272 742.433 507.713 706.112 496.621 680.474C496.385 679.925 496.024 679.44 495.569 679.06C495.114 678.679 494.576 678.413 494.001 678.284C493.425 678.155 492.828 678.166 492.257 678.316C491.687 678.467 491.159 678.752 490.718 679.149C490.003 679.79 489.142 680.495 488.155 681.286L487.798 681.542C464.311 699.703 365.953 750.979 22.3311 728.802C14.9995 728.332 7.62578 727.841 0.0210076 727.285" stroke="white" stroke-width="2" stroke-miterlimit="10"/>
<path d="M118.194 505.955C118.194 505.955 123.381 492.016 106.525 483.489C89.668 474.963 83.9627 489.718 83.9627 489.718" stroke="white" stroke-width="2" stroke-miterlimit="10"/>
<path d="M69.2226 480.837C69.2226 480.837 74.3918 466.871 57.5215 458.363C40.6512 449.855 34.9845 464.594 34.9845 464.594" stroke="white" stroke-width="2" stroke-miterlimit="10"/>
<path d="M16.7352 455.718C17.2454 454.092 17.5008 452.393 17.492 450.686C17.492 445.719 15.5677 438.082 5.03787 432.631C3.43481 431.771 1.7458 431.09 0 430.6" stroke="white" stroke-width="2" stroke-miterlimit="10"/>
<path d="M17.4922 452.13L34.9845 462.895" stroke="white" stroke-width="2" stroke-miterlimit="10"/>
<path d="M24.4891 732.02C24.4891 732.02 135.354 634.21 129.195 559.78" stroke="white" stroke-width="2" stroke-miterlimit="10"/>
<path d="M237.894 606.428C187.683 600.006 155.465 579.604 127.974 561.364C103.957 545.454 83.6217 531.203 58.349 529.314C40.3987 527.97 19.6868 522.891 0 516.72" stroke="white" stroke-width="2" stroke-miterlimit="10"/>
<path d="M1504.33 775.278C1053.68 761.673 745.053 789.103 745.053 789.103C604.911 797.486 480.436 803.498 370.059 807.558C223.286 812.956 101.341 814.931 0 814.492" stroke="white" stroke-width="2" stroke-miterlimit="10"/>
<rect x="-23" y="-1" width="1592.48" height="1137" fill="#E4B599"/>
<path d="M-58 781.435H205.391C205.391 781.435 197.379 823.72 597.994 815.442C597.994 815.442 934.952 832.51 1056.8 805.308C1178.65 778.107 1204.94 738.019 1204.94 738.019C1204.94 738.019 1205.35 701.75 1194.36 676.149C1194.12 675.603 1193.76 675.123 1193.3 674.746C1192.85 674.369 1192.31 674.105 1191.74 673.977C1191.17 673.848 1190.58 673.858 1190.01 674.006C1189.44 674.153 1188.92 674.434 1188.47 674.826C1169.7 691.424 1064.54 758.031 620.652 716.087C620.652 716.087 214.821 696.331 216.991 660.212C219.161 624.093 219.265 526.722 248.768 447.634C248.768 447.634 265.584 448.851 290.913 487.018C294.483 492.456 299.213 496.995 304.745 500.295C310.278 503.595 316.47 505.569 322.857 506.07C350.46 508.033 404.624 497.685 503.646 434.386C503.646 434.386 591.922 365.731 620.652 399.44C649.383 433.148 954.481 561.369 954.481 561.369C954.481 561.369 1033.93 579.781 1154.34 606.598C1154.34 606.598 1168.94 602.715 1185.95 677.344C1185.95 677.344 1006.89 619.74 943.381 666.676C943.381 666.676 892.952 682.379 935.327 614.257C935.327 614.257 965.873 564.121 876.699 525.228C876.699 525.228 862.407 492.864 837.453 511.403" stroke="white" stroke-width="2" stroke-miterlimit="10"/>
<path d="M819.357 501.367C819.357 501.367 824.55 487.401 807.65 478.893C790.751 470.385 785.125 485.124 785.125 485.124" stroke="white" stroke-width="2" stroke-miterlimit="10"/>
<path d="M770.377 476.248C770.377 476.248 775.57 464.301 758.693 456.992C741.816 449.684 736.146 462.331 736.146 462.331" stroke="white" stroke-width="2" stroke-miterlimit="10"/>
<path d="M717.901 454.718C717.901 454.718 723.094 440.753 706.217 432.245C689.339 423.737 683.67 438.476 683.67 438.476" stroke="white" stroke-width="2" stroke-miterlimit="10"/>
<path d="M668.998 429.6C668.998 429.6 673.672 415.661 658.482 407.134C643.292 398.608 638.19 413.363 638.19 413.363" stroke="white" stroke-width="2" stroke-miterlimit="10"/>
<path d="M491.333 443.953C491.333 443.953 487.337 398.223 536.705 362.441C586.073 326.66 596.855 381.837 645.187 402.508" stroke="white" stroke-width="2" stroke-miterlimit="10"/>
<path d="M669.676 418.835L687.169 433.188" stroke="white" stroke-width="2" stroke-miterlimit="10"/>
<path d="M718.655 447.542L736.146 458.307" stroke="white" stroke-width="2" stroke-miterlimit="10"/>
<path d="M250.258 447.05C250.258 447.05 242.827 426.856 292.453 456.664C342.078 486.473 343.181 503.133 354.816 504.955" stroke="white" stroke-width="2" stroke-miterlimit="10"/>
<path d="M218.377 601.84C218.377 601.84 322.59 541.969 347.819 530.073" stroke="white" stroke-width="2" stroke-miterlimit="10"/>
<path d="M347.819 530.073L480.76 447.542" stroke="white" stroke-width="2" stroke-miterlimit="10"/>
<path d="M435.281 705.902C435.281 705.902 455.882 639.922 512.246 583.898" stroke="white" stroke-width="2" stroke-miterlimit="10"/>
<path d="M512.246 583.898C512.246 583.898 659.023 452.637 673.175 433.188" stroke="white" stroke-width="2" stroke-miterlimit="10"/>
<path d="M722.153 727.432C722.153 727.432 836.713 629.609 830.349 555.192" stroke="white" stroke-width="2" stroke-miterlimit="10"/>
<path d="M627.695 479.837C627.695 479.837 707.582 518.808 762.136 522.952C816.691 527.096 848.33 589.515 942.554 601.84" stroke="white" stroke-width="2" stroke-miterlimit="10"/>
<path d="M219.985 662.842C219.985 662.842 203.912 671.576 208.811 757.426C208.811 757.426 262.785 853.804 1446.33 785.487" stroke="white" stroke-width="2" stroke-miterlimit="10"/>
<rect y="-22" width="1541" height="1136.33" fill="#E4B599"/>
<g clip-path="url(#clip1)">
<path d="M0 734.619H257.89C257.89 734.619 250.046 771.769 642.294 764.496C642.294 764.496 972.216 779.491 1091.52 755.593C1210.82 731.695 1236.56 696.477 1236.56 696.477C1236.56 696.477 1236.97 664.613 1226.2 642.121C1225.97 641.641 1225.61 641.219 1225.17 640.888C1224.72 640.557 1224.2 640.325 1223.64 640.213C1223.08 640.1 1222.5 640.108 1221.95 640.238C1221.39 640.367 1220.88 640.614 1220.44 640.959C1202.06 655.541 1099.1 714.058 664.48 677.208C664.48 677.208 267.124 659.852 269.248 628.119C271.373 596.387 271.475 510.842 300.361 441.36C300.361 441.36 316.827 442.428 341.627 475.96C345.122 480.737 349.753 484.726 355.17 487.625C360.587 490.524 366.65 492.258 372.903 492.698C399.93 494.423 452.963 485.332 549.916 429.72C549.916 429.72 636.35 369.404 664.48 399.019C692.61 428.633 991.337 541.281 991.337 541.281C991.337 541.281 1069.13 557.457 1187.02 581.017C1187.02 581.017 1201.32 577.606 1217.97 643.17C1217.97 643.17 1042.65 592.563 980.469 633.799C980.469 633.799 931.093 647.594 972.583 587.746C972.583 587.746 1002.49 543.699 915.179 509.53C915.179 509.53 901.186 481.096 876.753 497.384" stroke="white" stroke-width="2" stroke-miterlimit="10"/>
<path d="M857.673 490.111C857.673 490.111 862.576 477.928 846.621 470.506C830.666 463.083 825.355 475.941 825.355 475.941" stroke="white" stroke-width="2" stroke-miterlimit="10"/>
<path d="M808.971 468.182C808.971 468.182 813.874 456.017 797.94 448.576C782.005 441.135 776.653 454.012 776.653 454.012" stroke="white" stroke-width="2" stroke-miterlimit="10"/>
<path d="M758.983 446.233C758.983 446.233 763.885 434.05 747.951 426.628C732.017 419.205 726.664 432.063 726.664 432.063" stroke="white" stroke-width="2" stroke-miterlimit="10"/>
<path d="M711.67 424.341C711.67 424.341 716.573 412.176 700.639 404.735C684.704 397.294 679.352 410.171 679.352 410.171" stroke="white" stroke-width="2" stroke-miterlimit="10"/>
<path d="M538.252 439.598C538.252 439.598 534.391 398.587 582.091 366.499C629.792 334.41 640.211 383.893 686.91 402.43" stroke="white" stroke-width="2" stroke-miterlimit="10"/>
<path d="M711.547 415.25L729.851 427.771" stroke="white" stroke-width="2" stroke-miterlimit="10"/>
<path d="M759.697 441.978L776.714 452.1" stroke="white" stroke-width="2" stroke-miterlimit="10"/>
<path d="M300.3 441.379C300.3 441.379 292.864 424.135 342.526 449.588C392.188 475.042 393.291 489.268 404.935 490.824" stroke="white" stroke-width="2" stroke-miterlimit="10"/>
</g>
<rect width="1541.9" height="1137" fill="#E4B599"/>
<path d="M0 749.626H258.041C258.041 749.626 250.192 790.195 642.671 782.253C642.671 782.253 972.785 798.628 1092.16 772.531C1211.53 746.433 1237.29 707.973 1237.29 707.973C1237.29 707.973 1237.69 673.176 1226.92 648.613C1226.69 648.09 1226.33 647.629 1225.89 647.267C1225.44 646.905 1224.92 646.653 1224.36 646.53C1223.8 646.406 1223.22 646.416 1222.66 646.557C1222.11 646.699 1221.59 646.968 1221.16 647.344C1202.76 663.269 1099.74 727.172 664.869 686.931C664.869 686.931 267.28 667.977 269.406 633.323C271.532 598.67 271.634 505.25 300.537 429.373C300.537 429.373 317.012 430.54 341.827 467.158C345.325 472.375 349.958 476.73 355.378 479.896C360.798 483.062 366.865 484.957 373.121 485.437C400.164 487.32 453.228 477.393 550.239 416.662C550.239 416.662 636.723 350.794 664.869 383.134C693.016 415.475 991.918 538.492 991.918 538.492C991.918 538.492 1069.76 556.156 1187.72 581.885C1187.72 581.885 1202.03 578.16 1218.68 649.76" stroke="white" stroke-width="2" stroke-miterlimit="10"/>
</g>
<defs>
<clipPath id="clip0">
<rect width="1440" height="1137" fill="white"/>
</clipPath>
<clipPath id="clip1">
<rect width="1238.52" height="416.928" fill="white" transform="translate(0 354.053)"/>
</clipPath>
</defs>
</svg>
