<svg width="1440" height="1137" viewBox="0 0 1440 1137" fill="none" xmlns="http://www.w3.org/2000/svg">
<g id="Preloader" clip-path="url(#clip0_2:2)">
<rect width="1440" height="1137" fill="white"/>
<g id="pants">
<rect id="Rectangle 2" x="-35.8851" width="1541.9" height="1137" fill="#E4B599"/>
<path id="pants-complete" d="M-4 589.5C29.6667 564 108.2 525.7 153 576.5C209 640 325 987 397.5 1033.5C406.667 1041.67 428.4 1059.8 442 1067C459 1076 517 1101 544 1095M544 1095V1106C519.5 1108 463.2 1103.7 434 1070.5C436.5 1062.17 442.7 1042.5 447.5 1030.5C459.833 997.167 486 916.5 492 860.5C499.5 790.5 521 645 522 608C523 571 547 479.5 566 443C577.836 420.262 592.001 341.832 601 280M544 1095C555 986 534 919.5 553 876.5C572 833.5 589.5 738.5 593 723.5C596.5 708.5 613 560.5 614.5 549.5C616 538.5 622.5 504.5 632 486.5C639.6 472.1 676.5 371.5 694 323C691.833 292.833 687 227.3 685 206.5C683 185.7 685.833 179.489 687.5 178.983M677.5 184C691 181 681.5 153 702.5 174.5C723.5 196 707 244 702.5 253.5C698 263 692 261 694 258C696 255 710 221 704 197C701.133 185.53 694.268 180.798 687.5 178.983M677.5 184C664 187 635 201 632 199C629 197 634.5 222.5 632 232.5C629.5 242.5 626.5 274.5 601 280M677.5 184C679.833 225.5 687.6 318.3 700 357.5C712.4 396.7 703.167 554.833 697 629C695.5 690.5 692.3 827.7 691.5 884.5C690.7 941.3 662.833 1048.5 649 1095C671.833 1109 727.1 1129.9 765.5 1101.5L763 1086.5C747.667 1098.5 705.4 1116.1 659 1090.5C653.833 1085.67 647.8 1078.1 665 1086.5C686.5 1097 756 1093 763 1077C758.5 1032.67 752.2 930.5 763 876.5C773.8 822.5 783.833 768 787.5 747.5C790.667 693.333 795.1 574.1 787.5 530.5C778 476 790 357.5 798.5 331.5C807 305.5 804.5 176.5 758.5 124.5M601 280C606.446 242.579 610 211.237 610 202C610 198.085 609.911 195.408 609.873 193.637M601 280C600.833 277.5 602.1 270.8 608.5 264C616.5 255.5 616 192 622 189.5C626.8 187.5 629.333 191.425 630 193.637M630 193.637C631.255 193.338 632.586 192.963 634 192.5C634.507 192.334 635.007 192.169 635.5 192.006M630 193.637C610.75 198.23 609.685 184.897 609.873 193.637M635.5 192.006C635.667 185.837 635.6 172.4 634 168C632 162.5 634.5 156 638.5 158C642.5 160 646.5 184.704 646 188.355M635.5 192.006C639.44 190.7 642.919 189.482 646 188.355M646 188.355C663.422 181.978 668.081 178.5 671 178.5C672.827 178.5 680.106 177.001 687.5 178.983M609.873 193.637C606.082 188.592 602.2 177.2 617 172C635.5 165.5 672 148.5 673.5 148C674.361 147.713 694.321 137.876 712.5 127.466M758.5 124.5C755.5 121 748.5 96 741.5 107C739.159 110.678 730.949 116.425 721 122.464M758.5 124.5C761.5 128 748.5 133.5 745 137.5C743.971 138.676 738.759 142.79 731.86 148M687.5 178.983C688.71 179.256 705.752 167.284 721 156.081M721 156.081C721 148.531 719.3 132.239 712.5 127.466M721 156.081C725 166.162 726 160.5 731 156.081C735 152.546 726 132.196 721 122.464M721 156.081C724.826 153.27 728.539 150.508 731.86 148M712.5 127.466C715.407 125.801 718.269 124.121 721 122.464M712.5 127.466C711.167 122.286 711 114.035 721 122.464M731.86 148C730.907 144.5 730 137.5 734 137.5C739 137.5 745 165.017 745 172C745 178.983 757.5 200.017 791 189.5L794 193.637M731.86 148C743.348 210.8 778.073 204.592 794 193.637M794 193.637C842.167 219.758 962.1 267.2 1056.5 248C1174.5 224 1368 88.5 1404.5 -0.5" stroke="white" stroke-width="6"/>
</g>
<g id="sweatshirt">
<rect id="bgcolor" width="1541.9" height="1137" fill="#E4B599"/>
<path id="sweatshirt-complete" d="M-0.5 754.5C21.6667 782.667 73.1 855.4 101.5 921C137 1003 234.5 1069 294 1069M294 1069C353.5 1069 367.5 1071.5 365 1056C363 1043.6 356.167 1004.17 353 986M294 1069C279.5 1064 286 998 287 991C287.8 985.4 331.333 985.333 353 986M353 986C337.041 979.198 307.015 967.857 290 965.807M399.12 566.5C417.255 514.668 421.656 516.069 421.5 524C398.3 564 386.5 694.333 383.5 754.5C382.167 772 377.5 813.5 369.5 839.5C361.5 865.5 360.5 937 361 969.5C327.5 985 276.5 986 273 982.5C269.5 979 267 973 279.5 966.5C281.651 965.381 285.337 965.245 290 965.807M399.12 566.5C397.819 570.22 396.446 574.214 395 578.5C382.167 544.833 354.2 474 345 460C333.5 442.5 331.5 430 345 445C346.624 446.804 348.442 449.37 350.387 452.5M399.12 566.5L394 431C392 417.167 387.9 397.3 387.5 428.5C387.1 459.7 384.667 505.167 383.5 524C376.42 505.875 361.375 470.184 350.387 452.5M350.387 452.5C344.924 432.5 333.1 391.6 329.5 388C325 383.5 359.5 433.5 365.5 431C347.5 403.333 314 341.6 324 316C336.5 284 355.5 300 365.5 274.5C375.5 249 373 249 383.5 244C394 239 410.5 229.5 412 226C413.5 222.5 379.5 216.5 372.5 214C365.5 211.5 368.5 210 395 207C421.5 204 459.5 203.5 448.5 194.5C439.7 187.3 408.5 187.833 394 189C386.5 189 378.1 186.9 404.5 178.5C437.5 168 460 181 476.5 169M476.5 169C493 157 463.5 144 456 144.5M476.5 169C483.583 189.5 547.5 220.5 541.5 226M456 144.5C448.5 145 290 219.5 290 298.5C290 361.7 285 395.5 282.5 404.5C280 413.833 276.5 435.7 282.5 448.5C288.5 461.3 278.333 493.5 272.5 508C262 557 245.6 668.1 264 720.5C287 786 287 818.5 287 848.5C287 878.5 274 948.515 290 965.807M456 144.5C440.333 140 415.2 127.6 440 114C447.833 116 466.1 116.1 476.5 100.5C489.5 81 498 83.5 509 84C517.8 84.4 526.667 88.1667 530 90C530.833 90.3333 529.1 93.7 515.5 104.5C498.5 118 535 137 530 163C525 189 531.5 200 534.5 203.5C537.5 207 537.5 231.5 530 250C524 264.8 530.5 309.833 534.5 330.5C539.333 347.333 546.1 386 534.5 406C520 431 520 430 522.5 445C524.5 457 531.333 479 534.5 488.5H541.5L532.5 447.5C536.333 442.5 544.7 427.2 547.5 406C550.3 384.8 554.333 375.833 556 374C560.833 359.833 567.6 325 556 299C541.5 266.5 535.5 231.5 541.5 226M541.5 226L583 254.5M541.5 226C539.769 223.59 538.546 215.717 547.5 203.5C556.454 191.283 574.897 232.409 583 254.5M583 254.5C588.167 271.167 598.5 309.7 598.5 330.5C598.5 351.3 616.5 350.5 625.5 347.5C632.333 346.167 646.6 334.6 649 299C651.4 263.4 663.333 235.5 669 226C672.833 218.333 686.9 199.6 712.5 186C744.5 169 761.5 151.5 761.5 144.5C761.5 137.5 766.5 124.5 742.5 100.5C718.5 76.5 733 67 742.5 68C752 69 774.5 73.5 790 84C805.5 94.5 814 79.5 816.5 90C819 100.5 816.5 112 816.5 120C816.5 128 825.5 138 842.5 144.5C859.5 151 864 169 859 169C854 169 824.5 177.5 816.5 186C810.1 192.8 790.5 194.5 781.5 194.5C760.333 192.333 718.5 191.8 720.5 207C723 226 711.5 290.5 716 299C720.5 307.5 733 373 724.5 396.5C716 420 720.5 441 720.5 452.5H712.5L708.5 415C704 417.833 695.7 417.1 698.5 391.5C702 359.5 705.5 339 702 319C698.5 299 688.5 284 698.5 262C708.5 240 712.5 221 712.5 214C712.5 207 711 191.5 761.5 182.5C812 173.5 787 185 826.5 163C858.1 145.4 913.667 182.667 937.5 203.5C966.833 222.833 1022.3 294.9 1009.5 428.5C993.5 595.5 1058.5 489 1030 839.5C1044.17 884.667 1062.5 975.7 1022.5 978.5C972.5 982 943.5 973.5 936.5 958.5M936.5 958.5C930.9 946.5 928.167 874.167 927.5 839.5C930.667 798.333 935.1 710.4 927.5 688C918 660 925 659.5 922.5 642.5C921.221 633.804 913.332 614.967 905.5 597.939M936.5 958.5C935.167 963.167 932.4 977.7 932 998.5C931.5 1024.5 920 1046.5 947 1057.5C974 1068.5 1023.5 1077.5 1034 1057.5C1042.4 1041.5 1039.17 1006.17 1036.5 990.5C1010.17 993.167 955.4 994.5 947 978.5C936.5 958.5 1010 1052.5 1192.5 958.5C1338.5 883.3 1420.33 814.833 1443 790M905.5 597.939C901.083 588.337 896.685 579.31 893.5 573C884.833 560.833 865.6 536.7 858 537.5C848.5 538.5 869.5 522 898.5 565C904.5 535.5 923.1 471.7 949.5 452.5C982.5 428.5 927.5 472 905.5 573C915.167 560.667 936 538.1 942 546.5C938.833 551.959 929.1 564.902 915.5 573C898.5 583.122 916.5 592 936.5 592C956.5 592 962 597 958.5 603.5C955 610 924 615.878 905.5 597.939ZM905.5 597.939C896 583.293 875.9 557.8 871.5 573C866 592 878.5 586.061 878.5 592C878.5 597.939 880.5 604 871.5 617.5C862.5 631 898.5 685.5 898.5 737.5C898.5 789.5 908.5 901.5 893.5 958.5C893.167 969.333 896 997.7 910 1024.5C927.5 1058 821 1039 789.5 1044.5C758 1050 702 1042 663.5 1060.5C625 1079 395 1060.5 395 1031.5C395 1002.5 406.5 887 395 853.5C385.663 826.302 424.117 818.878 442.66 793.5M442.66 793.5C446.956 787.62 450.183 780.777 451.5 772.5C458.5 728.5 460.5 666 474.5 662.5C485.7 659.7 729.167 642.667 849.5 634.5C839.833 662.333 826.3 728.9 849.5 772.5C878.5 827 897.5 850.5 888 882.5C880.4 908.1 877.5 912.167 877 911C880.833 917.667 884.6 931.5 869 933.5C849.5 936 678.5 940 674.5 933.5C670.5 927 680 925 694.5 921C709 917 764 911.5 826 921C888 930.5 879 882 874 864.5C869 847 808 718 808 691.5C808 665 807.5 659 799.5 655.5C791.5 652 747 646.5 681 655.5C628.2 662.7 538.333 666.5 500 667.5C494.167 676.5 479.4 708.1 467 762.5C454.6 816.9 444.833 838.833 441.5 843C430.833 858.667 409.6 897.1 410 925.5C410.5 961 403.5 959.5 427.5 960.5C451.5 961.5 520.5 958 531.5 949C542.5 940 645 962.775 663 949C681 935.225 642.5 933.5 631.5 936C620.5 938.5 475.5 958 451.5 929C427.5 900 408 897.5 419 868.5C427.8 845.3 438.44 808.833 442.66 793.5Z" stroke="white" stroke-width="6"/>
</g>
<g id="shoe">
<rect id="bgcolor_2" x="3.05634" width="1541.9" height="1137" fill="#E4B599"/>
<path id="shoe-complete" d="M-7.5 781.5H205.5C204.333 791 241.2 811.1 398 815.5C455.333 815.5 581.4 815.5 627 815.5C684 815.5 842.5 829 982.5 815.5C1122.5 802 1184.5 759.5 1205 740C1205 725.5 1202.8 692.2 1194 675C1193.04 673.763 1190.06 672.797 1185 676.764M438 703.5C362.333 697.667 212.4 680.5 218 658.5C218.049 644.509 218.65 625.179 220.108 603.5M438 703.5C443.2 639.9 566.167 527.667 627 479.5M438 703.5C500.944 708.569 615.217 717.052 719.5 723.095M1185 676.764C1183.93 677.606 1182.76 678.669 1181.5 680C1174.3 687.6 1136.17 700.833 1118 706.5C1085.67 715.167 992.5 732 878.5 730C836.738 729.267 779.788 726.589 719.5 723.095M1185 676.764C1177.8 631.775 1163.33 611.176 1157 606.5C1100 594.333 979.8 568.5 955 562.5C947.465 560.677 928.598 552.961 904 542.142M1185 676.764C1126.67 657.343 997.4 627.7 947 664.5C932 673 907.3 677 928.5 625C931.825 616.844 933.923 609.354 935.03 602.5M904 542.142L876 525C872.333 514.845 859.2 497.883 836 511.268M904 542.142C884.097 533.389 860.442 522.605 836 511.268M904 542.142C918.334 547.161 940.985 565.654 935.03 602.5M836 511.268C830.033 508.5 824.018 505.7 818 502.888M836 511.268L818 502.888M818 502.888C820.5 497.425 821.8 484.9 807 478.5C792.2 472.1 784.929 481.167 783.144 486.5M818 502.888C806.289 497.415 794.565 491.9 783.144 486.5M783.144 486.5C778.153 484.14 773.22 481.802 768.372 479.5M768.372 479.5C770.915 475.333 773.2 465.2 762 458C748 449 739 454.647 735 463.574M768.372 479.5C756.626 473.921 745.376 468.55 735 463.574M735 463.574C736.333 462.382 737.5 459.1 731.5 455.5C725.5 451.9 721 449.333 719.5 448.5L717.5 455.156M735 463.574C728.831 460.615 722.972 457.796 717.5 455.156M717.5 455.156C715.62 454.249 713.785 453.363 712 452.5C704.341 448.624 694.438 443.522 683.986 438M717.5 455.156C719.667 450.271 720.5 439.1 706.5 433.5C692.5 427.9 685.657 434.167 683.986 438M683.986 438C685.491 436.667 687.2 433.1 682 429.5C676.8 425.9 671.5 422 669.5 420.5C670.167 422.672 671.1 427.664 669.5 430.258M683.986 438C681.194 436.525 678.362 435.02 675.524 433.5M669.5 430.258C670.5 425.505 670.4 414.7 662 409.5C651.5 403 645.5 401.927 638 412.464M669.5 430.258C658.023 424.047 646.807 417.774 638 412.464M669.5 430.258C671.504 431.342 673.516 432.425 675.524 433.5M638 412.464C629.267 407.198 622.902 402.877 621 400.5C614.6 392.5 606.333 390.5 603 390.5C577.4 384.1 523 419.5 499 438C496.689 439.335 494.18 440.767 491.5 442.278M638 412.464C641 409.642 645.8 403.3 641 400.5C635 397 622.5 390.5 609.5 377.5C596.5 364.5 580 347.5 565 350.5C550 353.5 537 358.5 518 379C499 399.5 492 423.557 491.5 442.278M491.5 442.278C454.369 463.217 384.323 499.404 350 505C304 512.5 295 493.5 288 483C281 472.5 269 460 260 452.5C252.8 446.5 249.667 448 249 449.5C231.838 487.482 223.564 552.096 220.108 603.5M491.5 442.278C525 446.186 599 459.1 627 479.5M491.5 442.278L220.108 603.5M627 479.5L675.524 433.5M627 479.5C650 490.833 709.2 515.8 762 525C788.533 529.623 809.742 541.681 830.426 555M935.03 602.5C890.798 597.417 861.193 574.812 830.426 555M830.426 555C828.617 588.397 803.9 668.771 719.5 723.095M218 665.5C212.667 680.167 203.6 719.1 210 757.5C230.667 771.833 314.6 801.2 485 804C698 807.5 1268 805.5 1435.5 781.5" stroke="white" stroke-width="6"/>
</g>
</g>
<defs>
<clipPath id="clip0_2:2">
<rect width="1440" height="1137" fill="white"/>
</clipPath>
</defs>
</svg>
