<svg width="1440" height="1137" viewBox="0 0 1440 1137" fill="none" xmlns="http://www.w3.org/2000/svg">
<g id="shoe">
<rect id="bgcolor" x="3.05634" width="1541.9" height="1137" fill="#E4B599"/>
<path id="shoe-complete" d="M-58 781.435H205.391C205.391 781.435 197.379 823.72 597.994 815.442C597.994 815.442 934.952 832.51 1056.8 805.308C1178.65 778.107 1204.94 738.019 1204.94 738.019C1204.94 738.019 1205.35 701.75 1194.36 676.149C1194.12 675.603 1193.76 675.123 1193.3 674.746C1192.85 674.369 1192.31 674.105 1191.74 673.977C1191.17 673.848 1190.58 673.858 1190.01 674.006C1189.44 674.153 1188.92 674.434 1188.47 674.826C1169.7 691.424 1064.54 758.031 620.652 716.087C620.652 716.087 214.821 696.331 216.991 660.212C219.161 624.093 219.265 526.722 248.768 447.634C248.768 447.634 265.584 448.851 290.913 487.018C294.483 492.456 299.213 496.995 304.745 500.295C310.278 503.595 316.47 505.569 322.857 506.07C350.46 508.033 404.624 497.685 503.646 434.386C503.646 434.386 591.922 365.731 620.652 399.44C649.383 433.148 954.481 561.369 954.481 561.369C954.481 561.369 1033.93 579.781 1154.34 606.598C1154.34 606.598 1168.94 602.715 1185.95 677.344C1185.95 677.344 1006.89 619.74 943.381 666.676C943.381 666.676 892.952 682.379 935.327 614.257C935.327 614.257 965.873 564.121 876.699 525.228C876.699 525.228 862.407 492.864 837.453 511.403M819.357 501.367C819.357 501.367 824.55 487.401 807.65 478.893C790.751 470.385 785.125 485.124 785.125 485.124M770.377 476.248C770.377 476.248 775.57 464.301 758.693 456.992C741.816 449.684 736.146 462.331 736.146 462.331M717.901 454.718C717.901 454.718 723.094 440.753 706.217 432.245C689.339 423.737 683.67 438.476 683.67 438.476M668.998 429.6C668.998 429.6 673.672 415.661 658.482 407.134C643.292 398.608 638.19 413.363 638.19 413.363M491.333 443.953C491.333 443.953 487.337 398.223 536.705 362.441C586.073 326.66 596.855 381.837 645.187 402.508M669.676 418.835L687.169 433.188M718.655 447.542L736.146 458.307M250.258 447.05C250.258 447.05 242.827 426.856 292.453 456.664C342.078 486.473 343.181 503.133 354.816 504.955M218.377 601.84C218.377 601.84 322.59 541.969 347.819 530.073L480.76 447.542M435.281 705.902C435.281 705.902 455.882 639.922 512.246 583.898C512.246 583.898 659.023 452.637 673.175 433.188M722.153 727.432C722.153 727.432 836.714 629.609 830.349 555.192M627.695 479.837C627.695 479.837 707.582 518.808 762.136 522.952C816.691 527.096 848.33 589.515 942.554 601.84M219.985 662.842C219.985 662.842 203.912 671.576 208.811 757.426C208.811 757.426 262.786 853.804 1446.33 785.487" stroke="white" stroke-width="2" stroke-miterlimit="10"/>
</g>
</svg>
