<svg width="1440" height="1137" viewBox="0 0 1440 1137" fill="none" xmlns="http://www.w3.org/2000/svg">
<g id="sweatshirt">
<rect id="bgcolor" width="1541.9" height="1137" fill="#E4B599"/>
<path id="sweatshirt-complete" d="M351.857 984.548L363.367 1051.37C363.367 1051.37 368.443 1067.27 351.857 1068.61C335.271 1069.95 298.764 1069.08 294.708 1068.61C290.652 1068.14 287.785 1064.88 287.785 1041.02V987.824C287.785 987.824 302.65 984.548 342.64 987.35C342.64 987.35 361.987 983.147 292.393 967.24C292.393 967.24 266.59 965.839 272.112 979.871C277.633 993.902 361.541 969.093 361.541 969.093C361.541 969.093 358.313 887.187 371.204 832.03C384.095 776.873 385.029 710.421 385.029 698.243C385.029 686.065 397.772 609.871 399.556 591.162C401.339 572.453 421.769 522.857 421.769 522.857C421.769 522.857 414.995 514.709 395.839 578.617C395.839 578.617 348.926 457.052 338.499 447.029C328.071 437.006 342.215 428.234 357.612 460.199C366.981 479.644 375.013 499.722 381.652 520.292C381.652 520.292 389.064 566.03 387.811 414.374C387.811 414.374 392.759 388.057 398.324 541.544C398.324 541.544 400.915 575.902 390.827 565.642M351.826 450.849C351.826 450.849 331.419 393.746 326.99 386.099C322.561 378.452 371.484 447.833 367.561 430.773C367.561 430.773 322.48 366.432 322.48 337.848C322.48 309.264 327.617 307.434 340.682 298.322C353.747 289.21 362.929 285.549 365.821 274.628C368.714 263.707 377.815 246.625 384.65 244.234C391.486 241.843 409.79 227.196 409.79 227.196C409.79 227.196 422.349 224.159 398.929 219.291C375.509 214.422 353.242 212.592 371.525 210.179C389.808 207.767 450.907 201.563 452.039 198.009C453.172 194.455 443.484 192.538 426.92 189.393C410.356 186.248 378.381 191.547 392.073 183.598C405.765 175.65 477.745 173.884 477.745 166.581C477.745 159.279 457.277 143.533 457.277 143.533C457.277 143.533 374.478 175.844 322.52 236.587C270.563 297.331 302.538 299.227 285.408 389.847C268.278 480.467 296.248 406.26 269.977 518.787C243.705 631.313 266.559 727.383 266.559 727.383C266.559 727.383 287.673 761.438 285.974 833.814C284.276 906.189 282.536 946.857 286.54 957.886C290.545 968.915 295.945 968.85 295.945 968.85M462.469 143.673C462.469 143.673 425.157 137.07 433.474 121.305C441.791 105.54 452.901 119.154 465.408 111.282C477.914 103.41 485.522 83.3219 495.944 82.6337C506.366 81.9454 524.397 84.7845 529.941 89.7958C535.486 94.8071 513.995 99.8184 513.995 107.712C513.995 115.605 530.858 140.64 530.858 140.64C530.858 140.64 538.029 148.448 530.858 166.751C523.688 185.054 526.002 184.323 533.172 200.088C540.342 215.853 533.172 244.48 533.172 244.48C533.172 244.48 522.521 260.245 533.172 311.8C543.823 363.354 541.051 388.432 541.051 388.432C541.051 388.432 538.967 399.186 527.857 417.79C524.625 423.084 522.684 429.107 522.201 435.344C521.719 441.58 522.708 447.845 525.084 453.601L533.172 488.013H541.385L533.172 447.923C533.172 447.923 545.22 437.169 545.908 421.425C546.596 405.681 546.596 393.465 554.245 374.108C561.895 354.751 563.959 332.576 561.186 320.338C558.414 308.1 542.031 262.547 538.966 245.061C535.902 227.575 539.654 192.066 554.933 204.949C570.212 217.832 582.698 252.266 582.698 252.266C582.698 252.266 498.446 196.346 483.667 166.643M581.302 253.456C581.302 253.456 591.104 280.644 598.129 337.901C598.129 337.901 600.926 354.343 627.575 345.058C654.225 335.773 641.584 269.188 669.642 221.238C697.7 173.288 717.261 202.238 760.695 144.831C760.695 144.831 767.699 135.374 739.662 93.2484C711.624 51.1225 769.109 72.2714 786.587 83.8345C804.066 95.3976 814.604 85.382 816.707 94.5809C818.81 103.78 816.707 123.919 816.707 123.919C816.707 123.919 818.095 134.257 839.107 144.831C860.12 155.405 864.348 163.272 857.322 168.28C850.297 173.288 819.462 183.325 810.397 189.772C801.332 196.22 764.881 191.922 754.364 194.071C743.847 196.22 722.478 190.417 720.921 207.998C719.365 225.579 720.059 260.527 717.956 286.34C715.852 312.152 725.654 335.042 725.654 351.506C725.654 367.969 728.073 393.008 720.921 404.464C713.77 415.92 720.921 453.124 720.921 453.124H712.34L708.848 415.425C708.848 415.425 694.125 421.637 699.047 394.448C703.968 367.26 704.641 344.349 703.253 328.616C701.865 312.883 689.266 279.956 698.353 264.911C707.439 249.866 713.076 221.926 713.076 221.926C713.076 221.926 706.766 188.999 749.484 184.7C792.203 180.402 769.088 192.567 830.715 161.058C830.715 161.058 865.042 140.318 947.682 213.307C1030.32 286.297 1006.57 436.596 1008.68 460.195C1010.78 483.794 1015.68 530.326 1030.38 628.376C1045.09 726.426 1028.98 838.769 1030.38 845.926C1031.79 853.083 1045.8 911.049 1044.39 948.274C1042.98 985.5 1028.98 978.364 1028.98 978.364C1028.98 978.364 958.24 988.38 942.844 963.319C927.448 938.259 931.633 935.379 932.327 971.186C933.021 1006.99 930.939 1043.47 940.047 1052.06C949.154 1060.66 987.666 1075.71 1017.07 1066.38C1017.07 1066.38 1030.38 1062.79 1034.59 1057.78C1038.8 1052.77 1035.98 987.649 1035.98 987.649C1035.98 987.649 936.534 1019.89 930.245 936.84C923.956 853.792 928.836 725.717 928.836 725.717C928.836 725.717 930.939 694.23 922.526 670.631C914.112 647.031 928.142 653.436 919.034 636.242C909.927 619.048 895.224 580.361 895.224 580.361C895.224 580.361 881.91 547.455 864.411 540.298C846.911 533.141 872.109 528.843 899.431 568.561C899.431 568.561 898.716 508.081 952.014 451.555C952.014 451.555 935.188 474.444 921.895 525.984C908.602 577.524 905.068 576.793 905.068 576.793C905.068 576.793 921.895 550.314 938.721 544.554C955.548 538.794 912.114 571.033 912.808 584.638C913.503 598.243 949.238 584.638 958.324 598.952C967.411 613.266 914.154 610.408 909.948 602.52C905.741 594.632 887.526 563.661 877.031 571.635C866.535 579.609 868.617 583.929 877.725 589.646C886.832 595.363 868.617 605.486 871.415 616.877C874.212 628.268 882.604 666.311 895.224 706.287C907.844 746.264 895.224 958.204 895.224 958.204C895.224 958.204 892.658 988.036 909.822 1023.11C926.985 1058.19 749.442 1028.51 667.602 1056.83C585.761 1085.16 398.375 1048.73 398.375 1027.15C398.375 1005.57 401.677 877.456 394.421 850.482C387.164 823.509 443.912 816.76 453.798 753.356C463.684 689.953 467.659 663.667 476.935 661.647C486.21 659.626 850.045 634.63 850.045 634.63C850.045 634.63 811.722 734.443 885.907 835.48C885.907 835.48 897.454 876.188 877.998 908.685C877.998 908.685 883.909 931.574 873.287 933.38C862.665 935.185 678.855 940 673.47 932.778C668.085 925.556 710.005 916.53 722.372 914.724C734.74 912.919 797.209 914.724 827.245 921.344C857.28 927.964 877.325 912.295 877.325 895.445C877.325 878.595 879.681 866.537 861.424 831.633C843.167 796.729 804.865 697.368 806.043 670.265C807.221 643.163 745.341 641.959 691.727 654.017C638.113 666.074 500.828 667.256 500.828 667.256C500.828 667.256 485.516 662.442 461.349 796.707C461.349 796.707 460.907 817.168 420.46 879.798C413.879 900.021 410.188 921.107 409.502 942.407C408.324 977.934 509.663 949.628 533.241 949.027C556.819 948.425 673.47 956.85 666.403 940C659.336 923.149 510.756 955.646 484.906 943.61C459.056 931.574 403.15 909.222 420.46 861.723C437.77 814.224 453.735 753.356 453.735 753.356M-96 671.018C-96 671.018 13.9115 730.335 89.5619 896.882C165.212 1063.43 292.328 1069.32 292.328 1069.32M1034 986.761C1034 986.761 1260.38 993.472 1411.83 807.375" stroke="white" stroke-width="2" stroke-miterlimit="10"/>
</g>
</svg>
