<svg width="69" height="188" viewBox="0 0 69 188" fill="none" xmlns="http://www.w3.org/2000/svg">
<path d="M35.949 0.0158698L37.6318 20.574C37.8283 22.9703 38.0311 25.3699 38.2022 27.7695C38.2403 28.3122 38.4811 28.4519 38.9913 28.5757C40.953 29.0518 42.9242 29.5279 44.8352 30.1627C48.2646 31.2895 51.2774 33.4213 53.4837 36.2822C57.407 41.3193 61.004 46.5533 63.6787 52.3808C63.9132 52.8886 64.1065 53.4155 64.3125 53.9392C64.3236 54.032 64.3236 54.1258 64.3125 54.2185C64.0495 54.0789 63.8118 53.9773 63.5995 53.8376C60.0469 51.5428 56.2852 51.2984 52.5805 53.1806C49.535 54.7264 46.6891 56.672 43.7609 58.4463C43.1754 58.8606 42.5682 59.2431 41.9418 59.5921C41.0544 60.0048 40.8548 60.6237 40.9689 61.541C41.1622 63.0867 41.2509 64.6452 41.3904 66.2544C41.6113 66.2619 41.8324 66.2448 42.0495 66.2036C44.6957 65.3911 47.2849 64.5246 49.6142 62.8899C51.8738 61.3029 54.3235 59.9762 56.7415 58.6304C57.5528 58.1765 58.4972 57.7988 59.6603 58.386C59.3434 58.6177 59.1437 58.897 58.9124 58.9192C56.7795 59.1509 55.1443 60.4428 53.4044 61.5346C54.3552 61.2014 55.3059 60.8395 56.2566 60.5412C59.0201 59.6778 61.7646 59.589 64.452 60.8586C67.1394 62.1282 67.7288 64.0929 66.1189 66.5718C64.3854 69.2475 61.9515 71.19 59.2261 72.7738C53.9992 75.8103 48.768 78.8341 43.5327 81.8451C43.256 81.9663 43.0294 82.1792 42.8909 82.4479C42.7524 82.7167 42.7104 83.025 42.7721 83.3211C43.463 91.1355 44.0904 98.9531 44.7369 106.771C44.8447 108.078 44.9429 109.386 45.1045 110.687C45.1368 110.84 45.1991 110.984 45.2878 111.113C45.3765 111.241 45.4898 111.35 45.6211 111.433C46.4261 111.903 47.2754 112.297 48.1057 112.725C49.8329 113.62 50.5269 115.141 50.698 116.994C50.9833 120.079 50.1117 122.863 48.5525 125.472C48.3339 125.834 48.1089 126.192 47.7729 126.742C48.2355 126.5 48.7166 126.296 49.2117 126.132C49.5033 126.062 50.0293 126.094 50.1149 126.259C50.1779 126.421 50.207 126.594 50.2004 126.768C50.1939 126.941 50.1518 127.112 50.0769 127.268C49.6871 128.046 48.429 128.563 47.4972 128.437C47.2644 128.368 47.017 128.368 46.7842 128.437C44.4137 129.801 41.7326 129.636 39.1783 130.024L38.6459 130.081C38.8547 130.25 39.0785 130.4 39.3146 130.528C41.327 131.319 43.3267 132.058 45.5197 131.074C46.182 130.802 46.8964 130.681 47.6113 130.719C47.9631 130.719 48.3022 131.192 48.6444 131.452C48.3687 131.744 48.1311 132.226 47.811 132.29C46.8602 132.471 45.9095 132.464 44.9588 132.569C44.4122 132.606 43.8719 132.708 43.3489 132.871C41.9657 133.364 40.6132 133.939 39.2987 134.594C41.365 134.715 43.4186 134.87 45.4912 134.911C45.9032 134.911 46.3247 134.55 46.7398 134.353C47.3438 134.033 47.9684 133.754 48.6096 133.518C48.7787 133.473 48.9562 133.468 49.1275 133.504C49.2988 133.541 49.4591 133.617 49.5952 133.728C49.6701 133.883 49.7031 134.056 49.6909 134.229C49.6786 134.401 49.6216 134.568 49.5255 134.712C49.0533 135.162 48.4131 135.826 47.9029 135.772C46.1852 135.591 44.9429 136.502 43.6024 137.244C42.9247 137.586 42.2967 138.018 41.7358 138.53C42.7277 138.53 43.726 138.47 44.7148 138.53C45.7035 138.59 46.6416 138.492 47.5162 137.851C48.1065 137.443 48.7817 137.175 49.4906 137.067C49.8899 137 50.5744 137.232 50.7392 137.54C50.904 137.847 50.641 138.644 50.3558 138.784C49.6008 139.18 48.7671 139.402 47.9156 139.434C47.4556 139.406 46.9948 139.476 46.5641 139.64C46.1334 139.804 45.7427 140.059 45.4183 140.387C44.3788 141.402 43.276 142.358 42.1446 143.389C43.52 143.307 44.756 143.186 45.9982 143.17C47.1803 143.17 48.2895 143.135 49.3638 142.415C49.9153 142.044 50.7836 142.097 51.5125 142.072C51.6723 142.098 51.8228 142.164 51.9498 142.265C52.0768 142.366 52.1761 142.497 52.2382 142.647C52.2407 142.808 52.2069 142.967 52.1394 143.113C52.072 143.259 51.9725 143.388 51.8484 143.491C51.5699 143.739 51.2101 143.876 50.8375 143.875C48.8409 143.621 47.3863 144.586 46.0458 145.878C45.5951 146.252 45.1899 146.678 44.8383 147.147C45.4722 147.039 46.1218 146.912 46.7683 146.83C47.9377 146.674 49.1135 146.566 50.2797 146.389C50.694 146.304 51.0963 146.168 51.4776 145.986C52.0227 145.757 52.5329 145.383 53.0939 145.291C53.3104 145.268 53.5293 145.296 53.733 145.373C53.9366 145.45 54.1194 145.574 54.2664 145.735C54.3483 145.94 54.3825 146.16 54.3666 146.38C54.3507 146.6 54.285 146.814 54.1745 147.005C53.6104 147.884 52.6946 147.849 51.8262 147.566C51.5555 147.453 51.2577 147.42 50.9688 147.472C50.6798 147.523 50.4119 147.658 50.1973 147.858C48.7585 149.093 47.3039 150.309 45.8556 151.531L46.0141 151.769C46.6982 151.468 47.4011 151.213 48.1184 151.004C49.1071 150.775 50.1276 150.686 51.129 150.521C51.4691 150.429 51.8035 150.316 52.1305 150.185C53.0368 149.912 53.9305 149.55 54.8559 149.42C55.0051 149.395 55.1581 149.401 55.3045 149.44C55.4509 149.478 55.5875 149.548 55.705 149.643C55.8226 149.739 55.9185 149.858 55.9863 149.994C56.0541 150.129 56.0922 150.278 56.0982 150.429C56.1362 151.175 55.5341 151.439 54.9225 151.518C54.3066 151.622 53.6789 151.636 53.059 151.559C52.1083 151.401 51.5378 151.819 51.1576 152.619C51.034 152.867 50.885 153.105 50.717 153.4C51.8915 153.997 53.2071 154.258 54.52 154.156C54.7892 154.077 55.0169 153.896 55.1538 153.651C55.401 153.26 55.4992 152.765 55.7876 152.41C55.9904 152.156 56.45 151.867 56.6813 151.94C56.8555 152.021 57.0104 152.139 57.1356 152.285C57.2607 152.431 57.3533 152.603 57.407 152.788C57.6923 153.921 56.8778 154.4 55.9809 154.822C56.2028 156.108 56.8715 157.149 57.6606 158.11C59.2198 160.015 60.9438 161.808 62.3635 163.824C63.7098 165.814 64.9261 167.89 66.0048 170.038C66.3855 170.824 66.5827 171.685 66.5816 172.558C66.6101 173.901 65.7513 174.755 64.5565 175.202C62.5485 175.906 60.4107 176.158 58.2944 175.942C56.714 175.794 55.1421 175.565 53.5851 175.256C51.4504 174.884 49.4807 173.866 47.9409 172.339C45.7574 170.2 43.146 169.14 40.0562 169.416C39.9009 169.416 39.7393 169.416 39.5903 169.416C37.4195 169.4 36.8649 168.483 37.841 166.531C37.8969 166.376 37.9445 166.218 37.9836 166.058C34.0665 167.794 31.2587 165.585 28.2544 163.719C28.4451 164.042 28.6568 164.353 28.8882 164.649C35.6796 172.266 43.783 177.783 53.8513 180.03C56.9031 180.709 59.9867 181.071 63.1273 180.735C65.8305 180.443 67.5006 178.713 67.5799 175.99C67.6116 174.901 67.5799 173.809 67.5799 172.622C67.9697 173.869 68.4862 175.056 68.6922 176.294C68.9694 177.758 69.0599 179.251 68.9616 180.738C68.7651 182.893 67.282 184.283 65.5802 185.442C63.5012 186.851 61.1434 187.451 58.7032 187.584C54.1017 187.829 49.6427 187.159 45.4215 185.185C39.153 182.252 33.2743 178.713 28.0928 174.076C26.2291 172.407 24.734 170.367 23.7036 168.086C20.7975 161.78 17.0991 155.914 13.4103 150.052C12.2314 148.176 11.0652 146.287 9.80068 144.472C7.56329 141.26 7.06574 137.787 8.30803 134.131C9.07496 131.864 10.0922 129.687 11.0683 127.494C11.3812 126.847 11.7965 126.256 12.2979 125.742C13.4198 124.529 14.5417 124.774 15.1501 126.319C15.6762 127.653 16.1769 128.998 16.6935 130.335C16.8076 130.623 16.9439 130.903 17.0706 131.195C18.1037 130.341 18.1133 130.338 17.7678 129.122C16.6555 125.199 16.4431 121.247 17.4509 117.273C17.8469 115.528 18.7423 113.937 20.0274 112.693C20.2292 112.485 20.3427 112.206 20.3443 111.916C20.2599 111.052 20.4279 110.182 20.8279 109.411C21.2279 108.641 21.8427 108.004 22.5975 107.577C24.2858 106.553 26.227 106.024 28.2005 106.05C28.5523 106.05 29.0594 106.133 29.2305 106.368C29.8073 107.167 30.6566 107.069 31.4489 107.275C35.3532 108.297 39.2449 109.383 43.1397 110.449C43.4566 110.538 43.7735 110.668 44.233 110.827C43.4503 101.505 42.677 92.3067 41.9038 83.1084L41.6724 82.9211C40.5949 83.8733 39.2829 84.6732 38.4811 85.8254C33.5848 92.8717 27.2561 97.7438 18.6679 99.2102C14.7794 99.8767 10.856 100.372 6.94215 100.797C5.63838 100.911 4.32483 100.825 3.04731 100.54C0.629281 100.054 -0.502085 98.0199 0.210964 95.6521C0.949367 93.2113 2.56877 91.3259 4.56214 89.9389C7.89922 87.606 11.344 85.3937 14.8903 83.3909C20.9908 79.9439 27.2118 76.7255 33.363 73.3578C35.686 72.0882 37.9487 70.7107 40.2495 69.403C41.2002 68.8539 40.4301 68.0794 40.652 67.3399C38.0628 67.4986 36.4687 66.3242 35.7589 63.8485C35.4641 64.0294 35.2296 64.1659 35.0141 64.3055C27.3132 69.7236 19.5742 75.0972 11.9303 80.5851C8.12739 83.3274 4.85687 86.6982 1.74797 90.2182C1.54832 90.4436 1.17753 90.5166 0.885976 90.6626C0.952528 90.3452 0.914499 89.9325 1.09514 89.7104C4.41003 85.4064 7.75027 81.1405 11.0778 76.8334C11.25 76.6405 11.3448 76.3906 11.344 76.1319C11.0271 74.4084 11.6863 73.78 13.4737 74.3608C13.3247 74.0434 13.217 73.8085 13.1187 73.58C12.9987 73.3521 12.9435 73.0955 12.9592 72.8383C12.9748 72.581 13.0608 72.3331 13.2076 72.1214C13.3545 71.9098 13.5566 71.7427 13.7919 71.6383C14.0271 71.534 14.2865 71.4963 14.5417 71.5296C14.7128 71.5296 14.9822 71.4788 15.0361 71.3677C15.0553 71.2783 15.053 71.1856 15.0293 71.0973C15.0056 71.0089 14.9612 70.9276 14.8998 70.8599C14.6308 70.6137 14.4606 70.2778 14.4209 69.9151C14.3812 69.5523 14.4749 69.1875 14.6843 68.8888C15.1406 68.1334 15.8315 68.2889 16.7505 68.6635C16.6903 68.2762 16.7505 67.889 16.5984 67.7906C16.2941 67.6191 16.0678 67.3363 15.9668 67.0015C15.8658 66.6667 15.8979 66.3057 16.0565 65.9941C16.1135 65.8109 16.2061 65.6408 16.329 65.4936C16.452 65.3464 16.6028 65.2251 16.7728 65.1365C16.9428 65.048 17.1286 64.9941 17.3195 64.9778C17.5104 64.9616 17.7026 64.9834 17.8851 65.0419C18.0023 64.5849 18.1069 64.1691 18.202 63.7723C16.9343 63.1851 16.7537 62.8518 17.096 61.8996C17.3749 61.1157 17.8914 60.9062 19.026 61.1982L19.8563 58.5034C18.8263 57.602 18.7376 57.1831 19.3048 56.1801C19.6218 55.6151 20.0211 55.3104 20.8894 55.8309C21.1841 54.4788 21.4598 53.1997 21.7387 51.9237C21.8609 51.1262 22.0464 50.3398 22.2933 49.5718C22.4296 49.229 22.9557 49.0417 23.3043 48.7846C23.5483 49.1718 24.0395 49.594 23.9919 49.9431C23.8744 50.8629 23.6102 51.7577 23.2092 52.5934C22.5278 53.9583 22.4518 53.9678 22.7433 55.6056C24.4008 53.0822 24.6131 50.2415 24.8223 47.3531C23.7194 47.6071 22.6831 47.9118 21.6246 48.0736C19.8753 48.3403 18.6552 47.7086 17.8724 46.1121C16.8504 44.0089 16.647 41.5998 17.302 39.3546C17.6189 38.1199 18.6076 37.5391 19.7739 37.1582C20.2207 37.0122 20.582 36.6059 20.975 36.3076C21.0447 36.2536 21.0605 36.1362 21.1271 36.0727C22.531 34.7491 22.5373 32.9907 22.6609 31.2482C23.1902 23.7988 23.7448 16.3493 24.2835 8.89994C24.499 5.93858 24.6955 2.97723 24.9015 0.0126964H25.6494C25.6908 0.281569 25.712 0.553185 25.7128 0.825243C25.5099 3.72312 25.2944 6.61782 25.0789 9.5157C24.612 16.0901 24.1377 22.6572 23.656 29.2168C23.5673 30.4642 23.4944 31.7148 23.3962 33.2161C27.4368 29.2835 32.0447 27.7028 37.4068 28.3313C37.2293 26.138 37.0645 24.0844 36.8966 22.034C36.4877 17.0254 36.0663 12.0136 35.6733 7.00188C35.4895 4.67215 35.3564 2.33608 35.2011 0L35.949 0.0158698ZM40.8263 70.1108C40.4206 70.314 40.1132 70.4504 39.8248 70.6187C37.8283 71.774 35.8666 72.9833 33.8447 74.0847C28.0484 77.2428 22.1824 80.2772 16.4336 83.5178C12.6941 85.6254 9.04327 87.9107 5.47802 90.3007C3.50926 91.5537 1.99061 93.4027 1.14267 95.5791C0.315536 97.8009 1.3455 99.5657 3.70015 99.8291C5.05675 100.017 6.43004 100.053 7.79464 99.937C11.1634 99.5562 14.5353 99.134 17.8629 98.5024C22.0683 97.7057 26.1406 96.4774 29.6425 93.8175C32.3711 91.7481 34.8778 89.4374 36.8173 86.6189C37.977 84.9171 39.477 83.4752 41.2224 82.3847C41.4248 82.2743 41.5867 82.1021 41.6847 81.8932C41.7828 81.6843 41.8117 81.4496 41.7675 81.223C41.5963 79.3567 41.4506 77.4872 41.2953 75.6209C41.1463 73.8117 40.991 72.0121 40.8263 70.1013V70.1108ZM68.0489 178.078C66.9302 180.846 64.7182 181.62 62.0276 181.7C58.7858 181.791 55.5474 181.422 52.4094 180.601C42.6422 178.084 34.7321 172.612 28.1435 165.09C27.6079 164.477 27.3449 163.627 26.9487 162.894C26.7963 162.528 26.5901 162.188 26.3371 161.884C20.9501 156.913 17.2763 150.359 15.8442 143.164C15.1153 139.606 14.8934 136.041 16.3988 132.579C16.4667 132.285 16.4331 131.978 16.3037 131.706C15.7523 130.281 15.1945 128.849 14.5924 127.453C14.3317 126.914 14.0407 126.39 13.7209 125.885C13.2233 126.316 12.5895 126.662 12.2504 127.192C10.7742 129.586 9.66536 132.188 8.96087 134.911C8.09253 138.047 8.4855 140.961 10.3172 143.675C11.268 145.072 12.1648 146.49 13.0649 147.915C17.115 154.321 21.219 160.704 24.4103 167.594C25.4872 169.954 27.0562 172.056 29.0118 173.758C33.9841 178.1 39.565 181.465 45.507 184.277C49.8139 186.321 54.3488 187.003 59.0518 186.677C61.8153 186.486 64.3347 185.594 66.439 183.677C67.8873 182.376 68.6574 179.938 68.0489 178.078ZM38.3544 29.2803C38.7885 34.565 39.21 39.7165 39.622 44.8806C39.7836 44.8488 39.8565 44.8584 39.9009 44.8234C40.1227 44.6552 40.3382 44.4743 40.5569 44.2997C42.8482 42.462 45.2123 40.748 47.9916 39.6974C49.836 38.9991 51.671 39.0943 53.5407 39.6561C51.4012 39.9206 49.3759 40.7706 47.6874 42.1128C45.1711 44.049 42.7753 46.1407 40.3541 48.1942C40.2393 48.3085 40.1485 48.4445 40.087 48.5944C40.0255 48.7443 39.9945 48.905 39.9959 49.0671C40.1322 51.2508 40.3129 53.4282 40.4935 55.6087C40.5886 56.7958 40.7122 57.9829 40.8294 59.2716C41.2287 59.0272 41.4918 58.8716 41.7516 58.7066C44.5753 56.9355 47.38 55.1358 50.2258 53.3996C53.0051 51.7015 55.9904 50.7112 59.2927 51.2603C60.4018 51.4444 61.4793 51.8285 62.6361 52.1427C62.4047 51.6666 62.2114 51.2445 62.0022 50.8287C59.3425 45.8088 56.2132 41.0529 52.6565 36.625C49.0184 32.0036 43.9098 30.4039 38.3544 29.2803ZM46.5053 158.082C47.8839 159.904 47.7222 161.51 45.9697 162.91C45.3115 163.433 44.5881 163.868 43.8179 164.204C42.6802 164.696 41.4664 165.014 40.3319 165.49C39.801 165.704 39.3309 166.045 38.9628 166.483C38.6047 166.944 38.4653 167.575 38.2308 168.134C38.8075 168.264 39.397 168.54 39.9674 168.505C41.5117 168.374 43.0659 168.582 44.5211 169.116C45.9763 169.65 47.2972 170.497 48.3909 171.597C50.0152 173.222 52.134 174.258 54.4122 174.542C56.5675 174.822 58.7361 174.986 60.9089 175.034C61.9678 175.01 63.0166 174.822 64.0178 174.476C65.5231 174.025 66.0333 173.012 65.6245 171.498C65.4541 170.866 65.2205 170.252 64.9273 169.667C63.4888 166.755 61.6778 164.042 59.5398 161.599C57.7651 159.605 55.7876 157.742 55.1633 155.301C53.5217 154.965 52.0766 154.667 50.622 154.387C50.487 154.36 50.3478 154.361 50.2131 154.39C50.0784 154.419 49.9511 154.475 49.8392 154.555C48.7015 155.692 47.624 156.869 46.5053 158.082ZM42.6517 81.3468C42.9242 81.204 43.0351 81.15 43.1397 81.0897C48.505 77.9951 53.8988 74.9417 59.2293 71.7835C61.7646 70.279 64.0463 68.4159 65.5675 65.8195C66.6418 63.9977 66.2013 62.6963 64.3315 61.7473C62.2293 60.6519 59.7826 60.4241 57.5148 61.1125C52.8625 62.4805 48.448 64.3659 44.6482 67.4954C43.8813 68.1302 43.0098 68.6317 42.2397 69.2602C42.0962 69.3764 41.978 69.5209 41.8924 69.6846C41.8068 69.8484 41.7557 70.028 41.7421 70.2124C41.8372 72.1168 42.0052 74.0212 42.1605 75.9256C42.3189 77.6777 42.4837 79.4456 42.6517 81.3468ZM37.4828 29.2835C34.919 28.8395 32.2836 29.0792 29.8415 29.9784C27.3994 30.8777 25.2366 32.4048 23.5705 34.4063C22.9905 35.0824 23.2314 36.4726 23.1204 37.5391C23.1204 37.6279 23.3233 37.7581 23.4374 37.8565C23.9976 38.2575 24.4676 38.7717 24.817 39.366C25.1663 39.9603 25.3873 40.6214 25.4656 41.3066C25.6842 42.8365 25.7825 44.3823 25.9441 45.9153C30.7453 44.6044 31.4679 45.2202 35.9331 48.4545C36.7191 47.7213 37.5462 47.0135 38.2941 46.2327C38.5739 45.931 38.733 45.5367 38.741 45.125C38.5635 42.3826 38.3258 39.6466 38.1072 36.9074C37.9043 34.3714 37.6952 31.8512 37.4828 29.2835ZM36.849 128.697C37.0455 129.059 37.5843 129.284 38.3702 129.182C39.9547 128.982 41.5393 128.919 43.1239 128.694C44.5753 128.487 45.8715 128.224 46.8127 126.672C48.3022 124.206 49.6396 121.774 49.9153 118.848C50.2322 115.471 48.4004 112.858 45.0317 112.366C45.4088 113.931 45.7289 115.404 46.1282 116.851C46.3627 117.689 46.762 118.48 47.0219 119.311C47.3388 120.263 47.5891 121.216 47.8046 122.196C48.0201 123.177 47.38 124.691 46.7652 124.783C46.1504 124.875 45.4215 123.853 45.3169 122.663C45.1806 121.108 45.0443 119.552 44.8891 118C44.8098 117.226 44.8542 116.388 44.5721 115.702C42.7087 111.348 38.0089 110.802 34.9761 112.731C34.3697 113.105 33.699 113.362 32.9986 113.49C31.7689 113.722 30.5108 113.807 29.4618 113.947C30.1147 114.649 31.0464 115.318 31.4964 116.226C31.9908 117.239 32.5644 117.585 33.6292 117.708C37.0106 118.105 38.5572 119.994 38.1642 123.393C37.9519 125.097 37.3497 126.751 36.849 128.697ZM46.6733 144.249L46.6289 144.005C45.4627 144.088 44.2964 144.195 43.127 144.246C42.4183 144.26 41.7201 144.42 41.0761 144.717C40.4321 145.013 39.8561 145.44 39.3843 145.97C38.9244 146.437 38.3885 146.822 37.7998 147.109C37.1406 147.462 36.1296 147.02 35.8508 146.306C35.5497 145.535 35.9427 144.992 36.6145 144.738C37.38 144.485 38.1599 144.279 38.9501 144.119C39.4889 143.983 40.1671 144.024 40.5347 143.704C42.0907 142.383 43.5549 140.958 45.244 139.396C44.523 139.436 43.8005 139.436 43.0795 139.396C40.8041 139.123 38.8836 139.695 37.2673 141.412C36.7445 141.888 36.0717 142.165 35.3659 142.196C35.0917 142.171 34.8278 142.079 34.597 141.928C34.3661 141.778 34.1754 141.573 34.0412 141.333C33.8954 140.977 34.2187 140.206 34.5736 139.923C35.1549 139.51 35.817 139.226 36.5163 139.089C37.5399 138.841 38.6871 138.936 39.6188 138.517C41.2034 137.8 42.6834 136.8 44.4359 135.781C43.1175 135.705 42.0337 135.721 40.9752 135.572C38.5477 135.232 36.136 134.746 33.7148 135.619C33.4185 135.73 33.0938 135.737 32.7926 135.642C32.2406 135.466 31.7297 135.181 31.2904 134.804C30.6566 134.169 30.9735 133.35 31.8735 133.245C32.4593 133.158 33.0571 133.198 33.626 133.363C35.7888 134.114 38.1526 134.037 40.2621 133.147C40.896 132.896 41.5647 132.709 42.2143 132.493C40.3964 132.044 38.6772 131.262 37.1437 130.185C36.7711 129.898 36.3294 129.714 35.8631 129.652C35.3968 129.59 34.9225 129.653 34.488 129.833C34.0195 130.007 33.519 130.077 33.0207 130.039C31.8799 129.992 30.739 129.868 29.5347 129.77C28.8987 131.148 28.5648 132.646 28.5555 134.165C28.5462 135.683 28.8617 137.185 29.4808 138.571C29.6773 138.447 29.8326 138.355 29.9847 138.254C31.1224 137.53 31.9718 137.714 32.6119 138.889C32.933 139.459 33.1649 140.076 33.2996 140.717C33.775 143.358 34.187 146.011 34.6211 148.652L35.4071 153.413C38.1968 152.373 41.1629 151.889 44.138 151.991C44.4572 151.937 44.7477 151.773 44.9588 151.527C46.0901 150.455 47.1772 149.35 48.3117 148.271C48.6286 147.973 48.9835 147.725 49.3226 147.452C48.055 147.481 46.9014 147.82 45.7352 147.887C43.688 148.011 42.1478 148.957 40.8801 150.48C40.6728 150.792 40.4183 151.071 40.1259 151.305C39.6085 151.679 39.0227 151.948 38.4019 152.096C38.1647 152.106 37.9285 152.059 37.7133 151.958C37.4982 151.858 37.3104 151.707 37.1659 151.518C36.9821 151.201 37.0962 150.515 37.3371 150.179C37.7193 149.65 38.2253 149.224 38.8107 148.937C39.8819 148.452 41.0291 148.138 42.1351 147.731C42.4872 147.626 42.8199 147.464 43.1207 147.252C44.325 146.271 45.5039 145.252 46.6954 144.249H46.6733ZM34.6306 153.645C34.5609 153.368 34.488 153.134 34.45 152.892C33.9461 149.687 33.4993 146.471 32.9257 143.275C32.6775 141.93 32.3105 140.61 31.8292 139.33C31.5313 138.514 31.0717 138.52 30.3587 139.012C29.7819 139.406 29.9309 139.812 30.1749 140.282C31.8862 143.653 31.5154 146.947 29.671 150.106C28.5935 151.943 26.7776 152.121 25.2913 150.594C24.4767 149.778 23.7965 148.837 23.2757 147.808C21.6912 144.522 20.2239 141.183 18.7471 137.851C18.1291 136.464 17.603 135.035 17.0072 133.55C13.8952 139.882 19.6027 155.873 26.6794 160.894C27.7125 156.698 31.2746 155.289 34.656 153.638L34.6306 153.645ZM31.3665 118.308C26.9297 118.553 23.206 117.22 20.6866 113.344C17.096 115.944 16.9248 125.155 18.8865 129.503C20.3794 128.395 22.2128 127.846 24.068 127.951C25.3993 128.056 26.7231 128.241 28.0326 128.503C28.7076 128.624 29.1766 128.643 29.4713 127.846C29.9087 126.65 30.5583 125.529 30.9672 124.323C31.6453 122.415 31.9306 120.451 31.3918 118.308H31.3665ZM35.7779 53.0854C35.461 53.4345 35.2993 53.5805 35.1694 53.7456C32.4503 57.2053 29.7354 60.6671 27.0248 64.131C25.7571 65.7719 24.3501 67.2828 22.4771 68.2318C20.8926 69.0285 19.7232 68.4286 19.308 66.721C18.9914 65.6332 19.0551 64.4697 19.4886 63.4232C20.2366 61.7092 21.0003 59.9984 21.6468 58.2432C21.8972 57.5735 21.8401 56.7895 21.9225 56.0595L21.6056 56.0118C20.7309 58.7288 19.6661 61.4077 19.0355 64.1754C18.2876 67.4605 16.7474 70.3298 15.0963 73.1769C14.6115 74.0146 14.0615 74.8127 13.4515 75.5638C11.8669 77.4904 10.2317 79.3726 8.63445 81.277C8.00063 82.0451 7.40484 82.864 6.73299 83.7337C8.47916 82.3054 10.0479 80.8771 11.7687 79.6424C19.2626 74.3143 26.7839 69.0242 34.3328 63.7723C35.1631 63.1946 35.6543 62.7185 35.4768 61.5505C35.2898 60.338 35.4768 59.0621 35.5338 57.8115C35.5814 56.3356 35.6796 54.8406 35.7779 53.0854ZM34.9983 154.498C32.9003 155.355 30.964 156.235 29.4618 157.774C28.7779 158.489 28.2263 159.319 27.8329 160.227C27.31 161.437 27.497 161.814 28.5333 162.608C29.1259 163.065 29.747 163.481 30.3397 163.935C32.8306 165.839 35.5243 166.35 38.4621 165.115C38.7767 165.001 39.0655 164.825 39.3114 164.598C39.9135 163.963 40.4777 163.3 41.0354 162.63C41.7802 161.735 41.7928 161.58 40.8294 160.973C38.31 159.383 36.1201 157.501 34.9983 154.498ZM28.6949 129.516C27.7695 129.319 26.9582 129.119 26.1343 128.973C23.8937 128.583 21.7419 128.741 19.7453 129.976C19.2193 130.293 19.026 130.611 19.2636 131.246C20.2461 133.87 21.013 136.587 22.1824 139.123C22.8352 140.542 24.0268 141.758 25.1423 142.904C25.9505 143.732 26.5463 143.462 27.0755 142.405C27.535 141.491 28.0896 140.625 28.5586 139.714C28.6926 139.463 28.7255 139.17 28.6505 138.895C28.0193 137.411 27.6976 135.814 27.7052 134.201C27.7129 132.588 28.0496 130.993 28.6949 129.516ZM35.1947 49.1528C33.3218 46.5279 28.9294 45.4075 26.1216 46.8548C25.9979 46.9526 25.8963 47.0756 25.8236 47.2157C25.751 47.3558 25.7089 47.5097 25.7001 47.6674C25.5385 50.6922 25.0283 53.6345 23.4817 56.2753C22.6546 57.6719 22.8733 59.0875 23.0919 60.5412C23.2092 61.3188 23.6845 61.6457 24.3184 61.2014C25.3015 60.5666 26.1984 59.8069 26.9868 58.9415C28.4699 57.1767 29.7407 55.2342 31.2112 53.4599C32.4503 51.9459 33.8606 50.5716 35.1947 49.1433V49.1528ZM18.3573 131.296C17.4414 132.249 17.4414 132.249 17.8692 133.315C18.0879 133.867 18.2907 134.423 18.5316 134.962C20.3918 139.177 22.2299 143.402 24.1567 147.585C24.5993 148.48 25.1885 149.295 25.8998 149.994C26.9646 151.099 28.0896 150.969 28.9516 149.721C30.2383 147.865 31.3189 143.437 29.1925 140.387C29.048 140.545 28.9166 140.715 28.7995 140.895C28.4826 141.44 28.1879 141.983 27.9407 142.551C27.1072 144.456 25.8776 144.773 24.3184 143.383C22.9335 142.151 21.7831 140.736 21.1239 138.939C20.3475 136.803 19.5615 134.67 18.7851 132.534C18.6393 132.141 18.5094 131.737 18.3573 131.287V131.296ZM35.8317 154.26C36.5861 156.242 37.926 157.946 39.6727 159.145C40.4079 159.669 41.1717 160.158 41.8752 160.732C42.5788 161.307 42.6643 161.976 42.0939 162.7C41.6692 163.233 41.2351 163.76 40.6488 164.484C41.5361 164.166 42.2333 164.03 42.8672 163.7C43.9225 163.128 45.0317 162.57 45.9095 161.773C46.968 160.821 46.8317 159.726 45.8239 158.802C45.0887 159.37 44.363 159.954 43.6056 160.5C43.0446 160.904 42.4393 161.008 41.9386 160.405C41.4379 159.802 41.6217 159.209 42.0622 158.698C42.422 158.242 42.8933 157.888 43.4304 157.669C43.9674 157.451 44.5519 157.375 45.1267 157.45C45.3866 157.479 45.7606 157.549 45.8937 157.412C47.0124 156.311 48.0899 155.165 49.31 153.892C48.2832 153.641 47.4655 153.47 46.6638 153.235C45.5229 152.918 44.7179 153.235 44.0207 154.222C43.3494 155.154 42.5849 156.014 41.739 156.79C41.6269 156.915 41.4887 157.013 41.3341 157.077C41.1796 157.141 41.0127 157.17 40.8456 157.162C40.6784 157.154 40.5152 157.109 40.3677 157.029C40.2202 156.95 40.0921 156.839 39.9928 156.704C39.4794 156.069 39.6252 155.39 40.1449 154.838C40.4434 154.572 40.784 154.357 41.1527 154.203C41.9101 153.816 42.6833 153.464 43.6182 153.019C41.4474 152.705 38.0374 153.276 35.8317 154.251V154.26ZM44.5088 113.823C44.4551 113.547 44.4264 113.267 44.4232 112.985C44.5341 112.033 44.0651 111.63 43.1904 111.376C40.6266 110.63 38.1198 109.719 35.5307 109.04C33.6814 108.528 31.7888 108.188 29.877 108.024C28.4541 107.92 26.9899 108.215 25.5638 108.462C24.7779 108.602 24.2962 109.332 24.7969 110.015C25.4878 110.967 26.28 112.167 27.291 112.532C28.4728 112.982 29.7401 113.164 31.0008 113.064C32.2616 112.963 33.4842 112.583 34.5799 111.951C37.7491 110.1 41.5837 110.557 44.0429 113.312C44.138 113.423 44.2426 113.531 44.5088 113.814V113.823ZM35.3976 49.9622C33.4961 52.2221 31.6897 54.3487 29.9118 56.5038C28.7424 57.9194 27.6586 59.4112 26.448 60.7919C25.9648 61.3184 25.3689 61.7286 24.705 61.9917C23.2377 62.5821 22.5912 62.179 22.2394 60.6205C22.1792 60.3571 22.1222 60.0936 22.0113 59.608C21.4123 61.0554 20.8197 62.2869 20.395 63.5787C20.1382 64.3686 20.0307 65.1996 20.0781 66.029C20.1858 67.7398 21.1302 68.2508 22.4866 67.232C23.9445 66.1256 25.2705 64.8551 26.4385 63.4454C29.3541 59.9159 32.108 56.2499 34.9951 52.695C35.6289 51.8983 35.949 51.2 35.3976 49.9526V49.9622ZM29.877 128.944L33.6799 129.192C33.5758 128.934 33.397 128.713 33.1665 128.557C32.4535 127.992 32.2411 127.268 32.6658 126.694C33.1982 125.977 33.8827 126.183 34.4975 126.538C35.0255 126.878 35.5334 127.248 36.0187 127.646C36.8554 126.231 37.1311 124.71 37.3212 123.161C37.692 120.165 35.4198 118.023 32.3489 118.543C33.0081 122.295 31.6644 125.589 29.877 128.944ZM20.0527 38.0374C19.0513 38.2469 18.3953 38.6722 18.1513 39.5419C17.5084 41.6534 17.7201 43.9334 18.7407 45.8899C18.9665 46.3963 19.3617 46.8079 19.8581 47.0536C20.3545 47.2993 20.921 47.3637 21.4598 47.2357C22.4635 47.0336 23.4532 46.7675 24.423 46.439C24.5486 46.381 24.6578 46.2926 24.7408 46.1818C24.8237 46.071 24.8779 45.9412 24.8983 45.8042C24.8128 44.1918 24.7335 42.5731 24.5053 40.9765C24.4434 40.4964 24.2746 40.0363 24.0113 39.6303C23.748 39.2243 23.397 38.8828 22.9842 38.6309C22.9271 39.3514 22.8986 39.9704 22.8257 40.5861C22.7572 41.422 22.6387 42.2529 22.4708 43.0746C22.2743 43.8935 21.837 44.6616 20.864 44.6171C19.8911 44.5727 19.6566 43.7697 19.4633 42.9889C19.0513 41.3288 19.4189 39.7387 20.0527 38.0374ZM39.1308 49.3845C38.4082 50.1526 37.8631 50.7557 37.3022 51.3143C37.0657 51.5348 36.8794 51.8037 36.7558 52.1028C36.6322 52.4018 36.5743 52.7239 36.586 53.0473C36.567 54.6058 36.4022 56.161 36.3578 57.7226C36.3166 59.2049 36.3578 60.6903 36.3578 62.3377C37.5621 61.5156 38.6649 60.7824 39.7361 60.0048C39.8114 59.9144 39.867 59.8093 39.8992 59.6961C39.9314 59.5829 39.9395 59.4643 39.9231 59.3477C39.6822 56.1134 39.4192 52.8791 39.1403 49.3845H39.1308ZM31.2777 117.347C30.7612 116.651 30.4221 115.906 29.8485 115.483C28.2005 114.277 26.4543 113.201 24.743 112.081C24.6214 111.988 24.4714 111.94 24.3184 111.944C23.3676 112.122 22.4327 112.325 21.4662 112.528C22.6387 115.664 27.1801 117.867 31.2777 117.347ZM40.0688 60.849L38.2117 62.1377L36.5543 63.2899C37.0867 65.7243 38.4304 66.7813 40.5157 66.3274C40.3731 64.5595 40.2305 62.7947 40.0688 60.8332V60.849ZM22.1729 38.2691C21.3679 37.7263 20.9464 37.9263 20.7404 38.7357C20.62 39.2181 20.3411 39.6879 20.3221 40.164C20.3015 41.1842 20.3396 42.2047 20.4362 43.2206C20.4521 43.4142 20.7531 43.7506 20.8735 43.7316C21.1341 43.6631 21.3599 43.5003 21.5074 43.2745C21.6571 43.0367 21.7494 42.7672 21.7767 42.4874C21.9162 41.0464 22.0429 39.6212 22.1729 38.2532V38.2691ZM48.0645 40.6179C47.7443 40.7126 47.436 40.8435 47.1455 41.0083C44.9017 42.5001 42.6802 44.0236 40.4396 45.5217C39.7709 45.9693 39.5713 46.5215 39.8914 47.1881L48.0645 40.6179ZM23.9793 110.979C23.1363 109.567 23.805 108.548 24.8888 107.593C22.4739 108.132 20.9528 109.938 21.3109 111.719L23.9793 110.979ZM36.6779 50.7588C37.2927 50.124 37.8283 49.4543 38.4589 48.9084C39.0896 48.3625 39.0642 47.7308 38.8519 46.9246C38.291 47.4483 37.841 47.9245 37.3339 48.3276C36.5321 48.9433 36.0187 49.6289 36.6684 50.743L36.6779 50.7588ZM50.9389 151.213L47.2469 152.184C50.4572 153.292 49.5508 153.613 50.9262 151.197L50.9389 151.213ZM40.9689 149.068C39.7361 149.429 38.4336 149.702 37.7364 151.159C39.6442 151.543 39.9484 149.75 40.9689 149.068ZM45.919 119.013C46.1409 120.54 45.8651 122.168 46.6162 123.891C47.361 121.946 46.3373 120.53 45.9222 119.013H45.919ZM37.8758 139.872L37.7617 139.631C36.977 139.829 36.2027 140.066 35.4419 140.342C35.1789 140.45 35.0426 140.866 34.8493 141.139C35.1884 141.193 35.6162 141.402 35.8539 141.269C36.5548 140.842 37.2309 140.376 37.879 139.872H37.8758ZM41.4854 67.2574L41.6185 68.7016L44.4929 66.575L44.3978 66.4194L41.4854 67.2574ZM38.8868 144.941L36.4909 145.662C37.2705 146.655 37.7491 146.493 38.8868 144.941ZM44.9081 158.428C43.4059 158.38 42.7245 158.853 42.5693 160.142L44.9081 158.428ZM42.7753 154.663L42.5503 154.438C41.9354 155.003 40.6203 154.794 40.5949 156.025L40.9118 156.381L42.7753 154.663ZM33.5848 127.002L33.3915 127.265C33.6831 128.059 34.4342 128.506 35.6099 128.383L33.5848 127.002ZM32.0003 133.962L31.9401 134.232C32.6531 134.902 33.5056 134.969 34.5324 134.375L32.0003 133.962Z" fill="black"/>
</svg>
